<?xml version="1.0" encoding="UTF-8" standalone="no"?>
<!DOCTYPE svg PUBLIC "-//W3C//DTD SVG 1.1//EN" "http://www.w3.org/Graphics/SVG/1.1/DTD/svg11.dtd">
<svg xmlns="http://www.w3.org/2000/svg" version="1.1" viewBox="0 0 284 177" width="284.0pt" height="177.0pt" xmlns:xlink="http://www.w3.org/1999/xlink">
<defs>
<path d="M 0.00 0.00 L 21.58 0.00 C 16.13 4.83 13.60 10.90 9.89 16.89 C 2.99 23.50 4.96 32.60 3.27 41.19 C 2.20 44.59 6.91 45.51 6.36 49.11 C 6.38 53.75 12.91 54.80 13.38 59.77 C 15.77 68.75 32.73 66.60 32.35 57.23 C 36.67 51.97 40.21 48.31 42.72 41.73 C 49.75 36.12 46.20 29.10 51.70 22.80 C 51.17 14.11 56.48 8.13 56.17 0.00 L 149.43 0.00 C 147.02 4.15 146.59 8.19 141.32 9.56 C 143.71 9.60 145.44 14.52 141.81 13.41 C 139.38 13.03 143.60 15.78 144.02 15.99 C 137.05 16.18 132.85 16.49 126.20 18.97 C 123.54 16.77 122.66 18.08 123.96 20.88 L 122.90 21.93 C 120.82 21.71 119.75 21.87 118.99 23.99 C 116.36 29.02 115.82 35.43 116.19 41.02 C 115.67 43.51 115.38 45.67 116.67 47.99 C 117.69 50.77 118.80 53.51 120.00 56.23 L 120.18 57.25 C 116.19 59.40 112.15 61.17 108.78 64.29 C 108.06 64.79 107.33 65.30 106.62 65.80 C 96.67 68.51 87.08 69.56 76.80 69.37 C 78.47 67.04 79.66 64.80 80.47 62.03 C 81.52 59.76 81.77 58.13 80.22 56.00 C 79.49 49.96 80.77 43.47 79.42 37.60 C 77.54 34.05 75.72 29.71 72.85 26.89 C 71.24 25.03 68.11 25.91 66.00 26.15 C 54.06 26.33 47.72 35.51 45.04 46.03 C 45.13 50.99 46.18 56.09 47.21 60.95 C 46.74 62.87 46.73 64.31 47.18 66.25 L 46.85 67.21 C 38.21 68.79 31.31 69.24 23.26 73.24 C 19.27 71.04 15.47 74.08 12.22 76.27 C 11.98 79.12 12.19 81.98 11.91 84.83 C 11.73 89.65 7.88 90.80 5.37 94.35 C 4.40 98.15 4.96 102.56 6.15 106.27 C 4.52 109.80 1.92 112.79 0.00 116.18 L 0.00 0.00 Z" id="p0" />
<path d="M 21.58 0.00 L 56.17 0.00 C 56.48 8.13 51.17 14.11 51.70 22.80 C 46.20 29.10 49.75 36.12 42.72 41.73 C 40.21 48.31 36.67 51.97 32.35 57.23 C 32.73 66.60 15.77 68.75 13.38 59.77 C 12.91 54.80 6.38 53.75 6.36 49.11 C 6.91 45.51 2.20 44.59 3.27 41.19 C 4.96 32.60 2.99 23.50 9.89 16.89 C 13.60 10.90 16.13 4.83 21.58 0.00 Z" id="p1" />
<path d="M 149.43 0.00 L 177.14 0.00 C 175.38 4.65 175.72 5.83 177.94 10.07 C 177.03 16.68 177.70 21.68 182.50 26.54 C 185.19 33.13 183.94 27.76 187.24 31.18 C 186.43 37.91 184.69 43.53 188.14 49.96 C 189.74 52.27 188.89 54.53 189.71 56.99 C 191.14 59.40 192.77 61.67 194.26 64.04 L 193.82 64.61 C 189.41 63.43 185.71 65.42 181.17 65.07 C 183.09 61.24 176.69 61.19 174.96 59.06 C 172.38 55.88 169.64 53.87 166.12 51.85 C 162.49 49.40 160.48 46.04 155.80 45.17 C 155.33 47.60 153.92 46.47 152.09 46.55 C 152.62 45.29 153.28 44.10 153.82 42.85 C 153.53 41.10 155.40 36.72 152.22 39.14 C 149.95 41.16 151.53 36.25 151.23 35.21 C 151.72 32.10 153.98 29.34 151.30 26.78 C 151.05 24.76 150.84 22.75 150.34 20.77 C 150.10 18.01 149.19 20.34 147.85 20.88 C 146.58 19.35 145.73 17.03 144.02 15.99 C 143.60 15.78 139.38 13.03 141.81 13.41 C 145.44 14.52 143.71 9.60 141.32 9.56 C 146.59 8.19 147.02 4.15 149.43 0.00 Z" id="p2" />
<path d="M 177.14 0.00 L 246.21 0.00 C 245.71 5.54 245.58 11.73 244.05 17.04 C 239.37 22.82 235.87 29.49 230.82 34.91 C 227.85 35.05 224.99 35.85 222.96 33.13 C 221.84 31.18 221.44 34.53 220.72 35.22 C 220.26 28.87 214.10 22.31 207.89 21.11 C 202.87 20.37 197.51 15.48 193.28 20.25 C 191.09 23.76 189.35 27.59 187.24 31.18 C 183.94 27.76 185.19 33.13 182.50 26.54 C 177.70 21.68 177.03 16.68 177.94 10.07 C 175.72 5.83 175.38 4.65 177.14 0.00 Z" id="p3" />
<path d="M 246.21 0.00 L 256.55 0.00 C 253.96 5.36 251.08 10.07 250.64 16.21 C 252.70 24.03 248.79 31.70 242.03 36.03 C 236.95 41.93 228.73 41.40 222.92 46.73 C 221.98 44.82 221.94 42.92 221.64 40.84 C 221.44 38.96 221.05 37.08 220.72 35.22 C 221.44 34.53 221.84 31.18 222.96 33.13 C 224.99 35.85 227.85 35.05 230.82 34.91 C 235.87 29.49 239.37 22.82 244.05 17.04 C 245.58 11.73 245.71 5.54 246.21 0.00 Z" id="p4" />
<path d="M 256.55 0.00 L 264.07 0.00 C 263.86 4.38 263.47 6.02 266.72 9.22 C 267.00 15.02 270.00 21.30 264.15 25.23 C 263.57 30.37 265.41 34.08 260.85 37.85 C 258.28 39.62 262.59 40.02 263.78 40.82 C 260.18 42.37 258.91 46.44 255.19 48.23 C 248.89 54.00 245.16 60.59 235.37 59.42 C 231.35 63.02 227.50 64.46 222.57 66.40 C 220.76 65.57 219.35 64.27 217.85 62.99 C 217.50 60.96 218.02 59.11 218.38 57.13 C 218.65 55.80 218.85 54.47 219.04 53.14 C 219.71 48.99 221.03 45.00 221.64 40.84 C 221.94 42.92 221.98 44.82 222.92 46.73 C 228.73 41.40 236.95 41.93 242.03 36.03 C 248.79 31.70 252.70 24.03 250.64 16.21 C 251.08 10.07 253.96 5.36 256.55 0.00 Z" id="p5" />
<path d="M 264.07 0.00 L 273.35 0.00 C 274.50 7.62 275.46 15.35 276.46 23.00 C 275.79 27.03 277.40 31.32 272.86 33.14 C 275.00 35.46 277.64 37.19 279.70 39.61 C 280.36 35.89 281.29 37.74 284.00 38.08 L 284.00 41.80 C 278.93 43.12 280.50 44.39 279.70 48.79 C 275.83 53.65 275.65 58.64 269.87 62.14 C 274.17 64.79 275.24 66.22 273.31 71.39 C 270.25 76.56 273.09 84.42 272.05 89.95 C 268.81 92.89 261.83 89.85 261.30 95.96 C 260.59 92.59 261.69 88.53 257.74 93.27 C 255.84 86.00 250.68 82.30 245.74 77.19 C 249.49 76.71 252.56 75.03 255.85 73.29 C 256.01 75.56 256.05 77.82 256.30 80.07 C 258.34 76.88 256.91 74.49 256.45 71.12 C 258.89 69.18 265.33 71.58 263.88 67.20 C 263.58 65.60 259.43 65.23 257.99 64.35 C 264.58 64.81 264.49 61.00 267.43 56.41 C 267.09 49.91 273.89 42.64 263.78 40.82 C 262.59 40.02 258.28 39.62 260.85 37.85 C 265.41 34.08 263.57 30.37 264.15 25.23 C 270.00 21.30 267.00 15.02 266.72 9.22 C 263.47 6.02 263.86 4.38 264.07 0.00 Z" id="p6" />
<path d="M 273.35 0.00 L 284.00 0.00 L 284.00 38.08 C 281.29 37.74 280.36 35.89 279.70 39.61 C 277.64 37.19 275.00 35.46 272.86 33.14 C 277.40 31.32 275.79 27.03 276.46 23.00 C 275.46 15.35 274.50 7.62 273.35 0.00 Z" id="p7" />
<path d="M 144.02 15.99 C 145.73 17.03 146.58 19.35 147.85 20.88 C 149.19 20.34 150.10 18.01 150.34 20.77 C 150.08 23.94 148.74 26.33 150.75 29.17 C 150.95 31.18 151.11 33.19 151.23 35.21 C 151.53 36.25 149.95 41.16 152.22 39.14 C 155.40 36.72 153.53 41.10 153.82 42.85 C 152.90 40.63 149.87 41.48 150.29 43.77 C 150.11 46.94 149.99 50.09 149.36 53.21 C 148.87 50.71 149.71 47.47 147.22 45.97 C 146.99 48.53 147.13 51.13 146.80 53.68 C 142.15 56.32 142.80 60.96 136.16 57.87 C 130.90 56.19 125.50 55.60 120.00 56.23 C 118.80 53.51 117.69 50.77 116.67 47.99 C 117.33 45.46 117.78 43.31 116.19 41.02 C 115.82 35.43 116.36 29.02 118.99 23.99 C 121.00 24.00 121.83 23.67 122.90 21.93 L 123.96 20.88 C 124.72 20.26 125.47 19.63 126.20 18.97 C 132.85 16.49 137.05 16.18 144.02 15.99 Z" id="p8" />
<path d="M 126.20 18.97 C 125.47 19.63 124.72 20.26 123.96 20.88 C 122.66 18.08 123.54 16.77 126.20 18.97 Z" id="p9" />
<path d="M 207.89 21.11 C 214.10 22.31 220.26 28.87 220.72 35.22 C 221.05 37.08 221.44 38.96 221.64 40.84 C 221.03 45.00 219.71 48.99 219.04 53.14 C 216.52 53.98 213.98 53.99 211.38 54.25 C 214.42 51.92 213.21 52.84 211.35 50.36 C 214.01 48.25 213.03 48.75 212.07 45.91 C 210.71 40.81 218.72 43.13 215.55 37.77 C 216.48 31.51 210.77 32.05 210.23 26.00 C 210.02 27.93 209.99 29.86 209.86 31.80 C 208.19 31.61 209.78 26.96 207.91 26.29 C 205.44 24.84 202.81 22.39 200.40 25.44 C 198.67 27.68 198.62 25.35 197.18 24.24 C 196.10 28.06 196.21 31.07 196.82 34.94 C 192.90 34.75 193.72 27.66 189.99 34.04 C 193.08 39.49 191.90 44.53 191.55 50.41 C 195.45 52.66 195.89 55.73 201.20 55.34 C 199.09 55.78 196.97 56.05 194.83 56.22 C 193.62 56.07 192.40 55.92 191.18 55.75 C 190.27 55.34 189.78 55.75 189.71 56.99 C 188.89 54.53 189.74 52.27 188.14 49.96 C 184.69 43.53 186.43 37.91 187.24 31.18 C 189.35 27.59 191.09 23.76 193.28 20.25 C 197.51 15.48 202.87 20.37 207.89 21.11 Z" id="p10" />
<path d="M 150.34 20.77 C 150.84 22.75 151.05 24.76 151.30 26.78 L 150.75 29.17 C 148.74 26.33 150.08 23.94 150.34 20.77 Z" id="p11" />
<path d="M 122.90 21.93 C 121.83 23.67 121.00 24.00 118.99 23.99 C 119.75 21.87 120.82 21.71 122.90 21.93 Z" id="p12" />
<path d="M 197.18 24.24 C 198.62 25.35 198.67 27.68 200.40 25.44 C 202.81 22.39 205.44 24.84 207.91 26.29 C 209.78 26.96 208.19 31.61 209.86 31.80 C 209.99 29.86 210.02 27.93 210.23 26.00 C 210.77 32.05 216.48 31.51 215.55 37.77 C 218.72 43.13 210.71 40.81 212.07 45.91 C 213.03 48.75 214.01 48.25 211.35 50.36 C 213.21 52.84 214.42 51.92 211.38 54.25 L 210.86 54.72 L 209.91 55.62 L 208.24 55.57 C 205.81 55.06 203.67 54.93 201.20 55.34 C 195.89 55.73 195.45 52.66 191.55 50.41 C 191.90 44.53 193.08 39.49 189.99 34.04 C 193.72 27.66 192.90 34.75 196.82 34.94 C 196.21 31.07 196.10 28.06 197.18 24.24 Z" id="p13" />
<path d="M 66.00 26.15 C 68.22 27.65 70.37 27.26 72.85 26.89 C 75.72 29.71 77.54 34.05 79.42 37.60 C 80.77 43.47 79.49 49.96 80.22 56.00 C 80.01 57.07 79.82 58.14 79.66 59.21 L 79.01 58.74 C 79.00 52.99 77.04 58.84 77.10 60.88 C 77.15 64.68 74.56 66.68 72.81 69.91 C 68.78 69.95 64.77 69.97 60.76 70.37 C 56.07 69.58 51.50 68.19 46.85 67.21 L 47.18 66.25 C 48.62 64.26 48.71 62.93 47.21 60.95 C 46.18 56.09 45.13 50.99 45.04 46.03 C 47.72 35.51 54.06 26.33 66.00 26.15 Z" id="p14" />
<path d="M 66.00 26.15 C 68.11 25.91 71.24 25.03 72.85 26.89 C 70.37 27.26 68.22 27.65 66.00 26.15 Z" id="p15" />
<path d="M 151.30 26.78 C 153.98 29.34 151.72 32.10 151.23 35.21 C 151.11 33.19 150.95 31.18 150.75 29.17 L 151.30 26.78 Z" id="p16" />
<path d="M 116.19 41.02 C 117.78 43.31 117.33 45.46 116.67 47.99 C 115.38 45.67 115.67 43.51 116.19 41.02 Z" id="p17" />
<path d="M 153.82 42.85 C 153.28 44.10 152.62 45.29 152.09 46.55 C 153.92 46.47 155.33 47.60 155.80 45.17 C 160.48 46.04 162.49 49.40 166.12 51.85 C 169.64 53.87 172.38 55.88 174.96 59.06 C 176.69 61.19 183.09 61.24 181.17 65.07 C 174.15 64.70 166.88 62.65 159.86 63.09 C 155.82 63.07 152.00 62.12 148.08 61.33 C 148.42 59.94 148.79 58.55 149.17 57.17 C 151.47 52.85 151.55 48.43 150.29 43.77 C 149.87 41.48 152.90 40.63 153.82 42.85 Z" id="p18" />
<path d="M 263.78 40.82 C 273.89 42.64 267.09 49.91 267.43 56.41 C 264.49 61.00 264.58 64.81 257.99 64.35 C 259.43 65.23 263.58 65.60 263.88 67.20 C 265.33 71.58 258.89 69.18 256.45 71.12 C 256.91 74.49 258.34 76.88 256.30 80.07 C 256.05 77.82 256.01 75.56 255.85 73.29 C 252.56 75.03 249.49 76.71 245.74 77.19 C 238.57 72.20 230.21 70.39 222.57 66.40 C 227.50 64.46 231.35 63.02 235.37 59.42 C 245.16 60.59 248.89 54.00 255.19 48.23 C 258.91 46.44 260.18 42.37 263.78 40.82 Z" id="p19" />
<path d="M 284.00 41.80 L 284.00 105.85 C 277.01 105.80 275.11 112.36 268.31 112.41 C 267.82 118.10 269.18 123.17 269.45 128.80 C 267.06 129.72 265.30 130.24 262.86 129.07 L 262.58 126.83 L 262.73 126.02 C 263.39 124.38 263.57 123.19 262.13 121.92 C 262.01 120.89 261.90 119.86 261.80 118.83 C 262.43 117.58 263.18 116.34 263.66 115.01 C 261.71 107.72 260.49 100.34 257.74 93.27 C 261.69 88.53 260.59 92.59 261.30 95.96 C 261.83 89.85 268.81 92.89 272.05 89.95 C 273.09 84.42 270.25 76.56 273.31 71.39 C 275.24 66.22 274.17 64.79 269.87 62.14 C 275.65 58.64 275.83 53.65 279.70 48.79 C 280.50 44.39 278.93 43.12 284.00 41.80 Z" id="p20" />
<path d="M 150.29 43.77 C 151.55 48.43 151.47 52.85 149.17 57.17 C 149.22 55.85 149.29 54.53 149.36 53.21 C 149.99 50.09 150.11 46.94 150.29 43.77 Z" id="p21" />
<path d="M 147.22 45.97 C 149.71 47.47 148.87 50.71 149.36 53.21 C 149.29 54.53 149.22 55.85 149.17 57.17 C 148.79 58.55 148.42 59.94 148.08 61.33 C 143.91 62.71 141.24 59.68 137.15 60.27 C 133.41 60.70 129.89 59.53 126.30 60.21 C 125.04 61.54 124.47 65.64 122.16 64.92 C 120.24 63.55 118.60 62.18 116.22 61.69 C 113.58 63.14 112.09 65.80 108.78 64.29 C 112.15 61.17 116.19 59.40 120.18 57.25 C 125.46 57.80 130.85 58.09 136.16 57.87 C 142.80 60.96 142.15 56.32 146.80 53.68 C 147.13 51.13 146.99 48.53 147.22 45.97 Z" id="p22" />
<path d="M 219.04 53.14 C 218.85 54.47 218.65 55.80 218.38 57.13 C 218.23 53.98 213.04 55.25 210.86 54.72 L 211.38 54.25 C 213.98 53.99 216.52 53.98 219.04 53.14 Z" id="p23" />
<path d="M 191.18 55.75 C 192.49 58.59 194.14 61.17 195.01 64.20 L 194.26 64.04 C 192.77 61.67 191.14 59.40 189.71 56.99 C 189.78 55.75 190.27 55.34 191.18 55.75 Z" id="p24" />
<path d="M 201.20 55.34 C 203.67 54.93 205.81 55.06 208.24 55.57 C 205.19 55.67 198.30 56.33 199.88 60.96 L 198.78 61.80 C 198.12 62.28 197.46 62.77 196.82 63.27 C 195.75 60.93 195.13 58.79 194.83 56.22 C 196.97 56.05 199.09 55.78 201.20 55.34 Z" id="p25" />
<path d="M 210.86 54.72 C 213.04 55.25 218.23 53.98 218.38 57.13 C 218.02 59.11 217.50 60.96 217.85 62.99 L 217.13 64.02 C 215.46 63.23 213.76 62.50 212.02 61.90 C 215.88 59.66 212.18 57.25 209.91 55.62 L 210.86 54.72 Z" id="p26" />
<path d="M 79.01 58.74 C 78.69 62.08 79.72 66.51 77.10 60.88 C 77.04 58.84 79.00 52.99 79.01 58.74 Z" id="p27" />
<path d="M 80.22 56.00 C 81.77 58.13 81.52 59.76 80.47 62.03 C 80.19 61.09 79.92 60.16 79.66 59.21 C 79.82 58.14 80.01 57.07 80.22 56.00 Z" id="p28" />
<path d="M 120.00 56.23 C 125.50 55.60 130.90 56.19 136.16 57.87 C 130.85 58.09 125.46 57.80 120.18 57.25 L 120.00 56.23 Z" id="p29" />
<path d="M 191.18 55.75 C 192.40 55.92 193.62 56.07 194.83 56.22 C 195.13 58.79 195.75 60.93 196.82 63.27 C 196.12 63.89 196.08 64.63 195.01 64.20 C 194.14 61.17 192.49 58.59 191.18 55.75 Z" id="p30" />
<path d="M 208.24 55.57 L 209.91 55.62 C 212.18 57.25 215.88 59.66 212.02 61.90 C 211.09 61.84 210.17 61.77 209.24 61.70 C 206.16 60.88 203.05 60.88 199.88 60.96 C 198.30 56.33 205.19 55.67 208.24 55.57 Z" id="p31" />
<path d="M 79.01 58.74 L 79.66 59.21 C 79.92 60.16 80.19 61.09 80.47 62.03 C 79.66 64.80 78.47 67.04 76.80 69.37 C 75.83 69.85 74.85 70.33 73.87 70.79 L 72.81 69.91 C 74.56 66.68 77.15 64.68 77.10 60.88 C 79.72 66.51 78.69 62.08 79.01 58.74 Z" id="p32" />
<path d="M 126.30 60.21 C 129.89 59.53 133.41 60.70 137.15 60.27 C 141.24 59.68 143.91 62.71 148.08 61.33 C 152.00 62.12 155.82 63.07 159.86 63.09 C 160.60 63.44 161.33 63.80 162.06 64.18 L 162.06 66.07 L 161.45 65.86 C 158.57 64.40 157.20 65.18 154.52 66.39 C 145.63 67.52 138.41 62.49 130.09 63.08 C 126.16 63.91 130.06 66.14 130.93 68.06 C 133.44 72.26 138.46 70.53 139.82 75.64 C 145.06 74.42 147.12 79.20 152.23 78.88 C 155.70 79.21 155.83 78.87 156.95 82.11 C 160.02 82.37 163.13 83.57 159.30 86.41 C 149.10 79.92 138.02 76.83 126.95 72.11 C 127.73 69.17 128.41 68.36 125.82 66.20 C 123.71 67.57 121.89 69.40 119.92 70.97 C 116.42 68.70 106.04 70.81 106.62 65.80 C 107.33 65.30 108.06 64.79 108.78 64.29 C 112.09 65.80 113.58 63.14 116.22 61.69 C 118.60 62.18 120.24 63.55 122.16 64.92 C 124.47 65.64 125.04 61.54 126.30 60.21 Z" id="p33" />
<path d="M 47.21 60.95 C 48.71 62.93 48.62 64.26 47.18 66.25 C 46.73 64.31 46.74 62.87 47.21 60.95 Z" id="p34" />
<path d="M 199.88 60.96 C 203.05 60.88 206.16 60.88 209.24 61.70 C 205.74 62.04 202.29 62.02 198.78 61.80 L 199.88 60.96 Z" id="p35" />
<path d="M 198.78 61.80 C 202.29 62.02 205.74 62.04 209.24 61.70 C 210.17 61.77 211.09 61.84 212.02 61.90 C 213.76 62.50 215.46 63.23 217.13 64.02 C 220.56 67.79 218.45 66.04 215.07 66.21 C 216.45 69.54 218.09 72.94 222.16 70.34 C 225.74 70.41 229.01 76.88 233.19 77.69 C 241.32 80.15 246.57 84.57 250.80 91.90 C 250.96 90.25 249.63 87.77 251.81 87.07 C 253.04 90.31 256.91 97.63 253.92 100.47 C 253.49 101.84 250.30 93.28 251.39 98.79 C 252.54 100.43 250.55 107.01 250.08 102.02 C 250.44 98.38 247.30 103.49 245.04 101.78 C 245.45 97.42 246.24 95.54 243.07 92.04 C 243.34 95.17 244.07 97.96 243.03 101.06 C 241.14 104.34 238.70 104.70 235.96 106.74 C 237.69 107.07 239.38 107.36 241.13 107.04 C 246.03 106.49 237.32 110.60 239.61 111.40 C 244.39 112.41 237.57 113.01 243.10 114.98 C 237.59 117.21 244.08 117.95 240.55 121.73 C 244.35 122.07 242.11 125.08 241.30 127.28 C 239.56 128.27 236.94 127.93 234.97 128.33 C 238.36 131.69 244.78 129.88 249.02 132.62 C 244.09 133.29 238.95 134.53 234.04 133.93 C 229.99 132.80 226.50 127.61 222.09 128.01 C 227.00 136.64 238.83 139.48 247.81 141.37 C 246.77 144.29 247.24 145.92 247.84 148.84 C 239.26 149.39 230.30 142.35 222.04 140.03 C 230.33 148.12 239.58 150.39 250.71 152.32 C 249.80 154.79 250.49 154.93 248.12 153.44 C 247.67 156.50 246.93 158.90 248.52 161.76 C 247.21 161.98 239.85 162.54 243.00 164.98 C 245.57 166.85 240.88 167.02 239.81 167.92 C 241.99 169.81 244.69 170.34 244.91 173.66 C 242.08 174.49 237.67 173.17 241.91 177.00 L 180.78 177.00 L 181.23 175.23 C 181.64 173.91 182.04 172.57 182.39 171.23 C 183.93 165.17 185.50 158.43 184.39 152.19 C 185.57 149.94 186.44 147.57 187.40 145.22 C 192.14 147.78 190.52 152.54 196.86 152.29 C 190.57 155.22 199.03 152.37 195.40 155.82 C 199.25 156.14 205.58 158.45 208.85 155.88 C 208.16 151.39 203.62 153.68 200.36 152.71 C 198.07 149.86 205.83 153.35 204.75 151.14 C 203.56 149.31 201.50 148.61 202.12 146.10 C 206.62 147.31 208.74 152.52 213.89 153.74 C 218.76 150.96 208.78 147.65 208.10 143.95 C 213.20 146.22 215.65 150.48 222.00 149.92 C 217.04 146.84 219.12 142.88 212.45 144.58 C 212.30 139.13 207.06 141.85 207.56 137.35 C 208.37 134.15 203.53 135.48 206.51 133.44 C 209.78 131.45 201.90 127.18 200.18 130.58 C 200.57 124.84 195.35 125.02 194.13 119.93 C 198.40 121.20 201.45 125.43 205.27 127.72 C 209.86 131.36 215.14 133.01 220.15 135.79 C 223.13 137.16 222.50 131.09 219.66 131.40 C 214.45 130.85 211.24 131.08 208.27 126.13 C 209.69 121.64 214.46 126.06 214.82 128.89 C 219.64 128.18 213.52 123.20 211.66 122.37 C 206.17 119.99 200.86 116.55 195.96 113.14 C 201.54 113.80 204.88 117.28 210.32 119.70 C 214.28 121.25 216.89 124.70 221.02 121.37 C 209.51 120.53 201.49 107.87 189.38 106.63 C 187.04 107.08 182.28 102.47 182.75 106.62 C 180.80 104.50 179.29 102.97 176.18 102.95 C 178.88 107.56 179.88 112.71 180.37 117.97 C 177.43 117.99 174.65 117.82 171.80 118.63 L 170.95 118.86 C 169.82 119.20 168.70 119.59 167.59 120.04 C 164.89 120.01 167.39 114.90 167.64 113.48 C 170.47 108.93 167.30 104.99 169.35 100.36 C 171.71 96.44 165.33 92.61 163.02 90.00 C 164.22 88.21 164.86 86.29 165.49 84.24 C 170.61 85.12 171.59 85.41 170.21 90.77 C 171.67 89.78 173.08 88.73 174.63 87.86 C 174.58 89.68 171.95 93.67 174.76 94.23 C 177.89 95.25 172.39 96.62 174.82 98.03 C 181.41 100.59 187.62 103.23 194.84 103.35 C 200.16 105.65 205.20 114.28 211.58 113.60 C 213.63 116.24 217.80 119.14 220.81 120.06 C 217.99 109.71 210.37 112.17 204.14 106.23 C 208.58 106.13 211.72 105.75 215.57 108.48 C 217.02 102.76 219.67 110.54 222.50 111.46 C 226.54 112.89 232.04 112.10 235.73 109.75 C 234.40 107.97 229.79 107.52 233.71 105.70 C 236.98 104.00 234.53 103.07 235.17 100.37 C 235.15 97.88 235.90 93.84 233.06 92.72 C 231.88 89.85 229.50 87.71 226.73 86.40 C 217.94 84.23 213.14 72.69 206.00 67.90 C 204.62 69.91 201.52 71.67 204.41 73.80 C 204.95 72.79 205.50 71.79 206.07 70.79 C 210.40 74.95 213.00 80.91 214.65 86.60 C 214.98 88.70 218.44 88.94 220.04 89.86 C 217.02 90.15 215.41 90.31 213.01 88.29 C 212.01 89.41 211.41 90.54 209.86 90.97 C 208.02 88.92 207.66 86.67 207.61 83.99 C 207.18 83.45 206.73 82.93 206.27 82.42 C 203.97 77.90 200.38 73.67 199.15 68.76 C 198.69 68.31 198.04 68.07 197.21 68.05 C 196.80 71.90 197.16 75.96 196.89 79.77 C 195.37 80.28 196.34 75.01 195.90 74.01 C 196.13 70.25 190.39 67.87 193.82 64.61 L 194.26 64.04 L 195.01 64.20 C 196.08 64.63 196.12 63.89 196.82 63.27 C 197.46 62.77 198.12 62.28 198.78 61.80 Z M 238.20 95.47 C 237.69 90.59 234.65 95.58 237.57 97.43 C 239.01 100.54 239.77 96.40 241.22 95.38 C 243.35 92.71 239.04 94.85 238.20 95.47 Z" id="p36" />
<path d="M 130.09 63.08 C 138.41 62.49 145.63 67.52 154.52 66.39 C 157.20 65.18 158.57 64.40 161.45 65.86 C 160.38 67.96 157.76 67.29 156.24 69.24 C 153.86 72.29 150.09 69.12 147.00 68.78 C 144.04 67.71 141.29 66.64 138.07 67.12 C 137.90 69.45 142.52 70.56 144.11 71.79 C 146.04 72.90 147.88 74.11 149.90 75.07 C 151.37 76.19 151.76 77.11 152.23 78.88 C 147.12 79.20 145.06 74.42 139.82 75.64 C 138.46 70.53 133.44 72.26 130.93 68.06 C 130.06 66.14 126.16 63.91 130.09 63.08 Z" id="p37" />
<path d="M 159.86 63.09 C 166.88 62.65 174.15 64.70 181.17 65.07 C 185.71 65.42 189.41 63.43 193.82 64.61 C 190.39 67.87 196.13 70.25 195.90 74.01 C 196.34 75.01 195.37 80.28 196.89 79.77 C 197.16 75.96 196.80 71.90 197.21 68.05 C 198.04 68.07 198.69 68.31 199.15 68.76 C 200.38 73.67 203.97 77.90 206.27 82.42 C 203.00 83.41 201.02 83.99 200.91 87.84 C 203.16 85.57 203.96 83.68 207.61 83.99 C 207.66 86.67 208.02 88.92 209.86 90.97 C 205.62 92.19 211.55 92.14 212.89 92.63 C 212.98 91.18 212.98 89.74 213.01 88.29 C 215.41 90.31 217.02 90.15 220.04 89.86 C 218.44 88.94 214.98 88.70 214.65 86.60 C 213.00 80.91 210.40 74.95 206.07 70.79 C 205.50 71.79 204.95 72.79 204.41 73.80 C 201.52 71.67 204.62 69.91 206.00 67.90 C 213.14 72.69 217.94 84.23 226.73 86.40 C 229.50 87.71 231.88 89.85 233.06 92.72 C 228.05 91.57 225.46 99.71 230.99 99.99 C 233.10 100.82 230.03 98.57 229.87 98.14 C 228.87 97.26 230.43 92.02 232.18 94.74 C 233.04 96.84 233.40 98.78 235.17 100.37 C 234.53 103.07 236.98 104.00 233.71 105.70 C 229.79 107.52 234.40 107.97 235.73 109.75 C 232.04 112.10 226.54 112.89 222.50 111.46 C 219.67 110.54 217.02 102.76 215.57 108.48 C 211.72 105.75 208.58 106.13 204.14 106.23 C 210.37 112.17 217.99 109.71 220.81 120.06 C 217.80 119.14 213.63 116.24 211.58 113.60 C 205.20 114.28 200.16 105.65 194.84 103.35 C 187.62 103.23 181.41 100.59 174.82 98.03 C 172.39 96.62 177.89 95.25 174.76 94.23 C 171.95 93.67 174.58 89.68 174.63 87.86 C 173.08 88.73 171.67 89.78 170.21 90.77 C 171.59 85.41 170.61 85.12 165.49 84.24 C 164.86 86.29 164.22 88.21 163.02 90.00 C 161.46 89.20 156.98 89.90 159.00 87.17 C 163.42 87.22 161.49 84.38 162.13 81.31 C 163.50 77.89 159.89 76.45 158.19 74.03 C 159.43 72.80 161.60 74.44 163.09 74.64 C 162.78 72.29 162.55 72.43 160.42 71.66 C 162.95 70.12 164.29 66.28 162.06 64.18 C 161.33 63.80 160.60 63.44 159.86 63.09 Z M 224.63 94.83 C 224.93 97.07 223.90 98.86 226.37 100.16 C 226.25 96.70 227.83 94.06 224.25 91.87 C 222.35 89.30 222.54 95.06 224.63 94.83 Z M 216.12 94.13 C 215.42 97.76 217.14 100.09 220.88 100.02 C 219.97 98.54 217.96 93.84 216.12 94.13 Z M 199.77 99.24 C 199.52 98.11 198.75 95.64 197.16 96.39 C 196.22 98.07 198.47 99.00 199.77 99.24 C 204.03 100.34 211.05 101.68 211.08 95.18 C 207.22 99.42 205.41 99.23 199.77 99.24 Z" id="p38" />
<path d="M 217.85 62.99 C 219.35 64.27 220.76 65.57 222.57 66.40 C 230.21 70.39 238.57 72.20 245.74 77.19 C 250.68 82.30 255.84 86.00 257.74 93.27 C 260.49 100.34 261.71 107.72 263.66 115.01 C 263.18 116.34 262.43 117.58 261.80 118.83 C 259.18 119.42 256.68 120.21 254.24 121.32 C 252.63 121.19 251.02 121.07 249.42 120.87 C 250.80 114.44 254.10 111.01 252.95 104.12 C 249.00 111.43 245.64 103.78 241.13 107.04 C 239.38 107.36 237.69 107.07 235.96 106.74 C 238.70 104.70 241.14 104.34 243.03 101.06 C 243.69 101.31 244.36 101.56 245.04 101.78 C 247.30 103.49 250.44 98.38 250.08 102.02 C 250.55 107.01 252.54 100.43 251.39 98.79 C 250.30 93.28 253.49 101.84 253.92 100.47 C 256.91 97.63 253.04 90.31 251.81 87.07 C 249.63 87.77 250.96 90.25 250.80 91.90 C 246.57 84.57 241.32 80.15 233.19 77.69 C 229.01 76.88 225.74 70.41 222.16 70.34 C 218.09 72.94 216.45 69.54 215.07 66.21 C 218.45 66.04 220.56 67.79 217.13 64.02 L 217.85 62.99 Z" id="p39" />
<path d="M 162.06 64.18 C 164.29 66.28 162.95 70.12 160.42 71.66 C 162.55 72.43 162.78 72.29 163.09 74.64 C 161.60 74.44 159.43 72.80 158.19 74.03 C 159.89 76.45 163.50 77.89 162.13 81.31 C 157.82 80.29 154.05 73.23 149.90 75.07 C 147.88 74.11 146.04 72.90 144.11 71.79 C 142.52 67.85 143.77 69.39 147.00 68.78 C 149.31 70.95 153.99 73.40 156.74 70.72 C 159.03 68.60 162.37 69.92 162.06 66.07 L 162.06 64.18 Z" id="p40" />
<path d="M 106.62 65.80 C 106.04 70.81 116.42 68.70 119.92 70.97 C 122.23 71.61 124.56 71.94 126.95 72.11 C 138.02 76.83 149.10 79.92 159.30 86.41 L 159.00 87.17 C 156.98 89.90 161.46 89.20 163.02 90.00 C 165.33 92.61 171.71 96.44 169.35 100.36 C 167.30 104.99 170.47 108.93 167.64 113.48 C 167.39 114.90 164.89 120.01 167.59 120.04 C 167.72 121.08 167.85 122.11 167.97 123.14 C 168.88 129.79 169.85 136.57 171.84 142.99 C 172.00 145.59 172.07 148.18 172.31 150.77 C 172.10 151.92 171.89 153.07 171.68 154.22 C 170.91 151.64 171.62 147.60 169.30 145.97 C 168.82 148.87 169.52 152.18 167.45 154.43 C 164.51 158.18 160.37 158.14 156.00 158.08 C 150.20 157.76 144.67 157.93 139.91 154.20 C 137.34 153.70 141.77 158.38 142.04 159.10 C 140.65 160.67 135.97 160.31 136.11 162.67 C 141.64 162.74 145.38 166.05 150.85 164.75 C 156.34 163.85 160.46 161.94 165.29 165.97 C 161.94 168.42 158.10 169.02 154.04 168.80 C 147.84 168.01 142.64 169.73 137.05 165.95 C 133.56 163.57 132.76 167.87 129.17 166.82 C 127.61 166.19 123.44 166.62 124.34 164.09 C 125.01 161.13 122.44 162.41 120.55 161.49 C 118.49 156.50 114.55 152.89 112.19 148.00 C 109.70 156.41 116.69 160.12 114.68 167.69 C 112.49 174.38 110.46 163.96 108.89 162.09 C 108.11 158.93 104.37 161.86 104.23 158.88 C 103.52 155.54 103.11 152.18 102.19 148.89 C 101.02 145.83 104.39 135.14 98.86 137.03 C 96.14 136.99 93.51 137.02 90.90 136.14 C 91.70 131.25 89.41 119.75 95.29 117.57 C 97.88 120.37 94.81 124.41 99.87 121.08 C 99.64 125.60 101.84 127.54 95.98 126.33 C 97.54 128.46 99.39 128.09 101.74 127.85 C 101.33 119.21 103.42 111.33 100.35 102.84 C 99.96 97.46 99.77 96.79 95.63 93.47 C 95.65 91.60 95.25 80.71 93.56 87.89 C 91.95 84.70 91.47 80.90 89.49 77.96 C 89.78 80.67 88.85 82.68 88.12 85.19 C 93.41 85.30 88.91 94.72 89.50 97.95 C 86.32 94.86 88.48 92.34 82.50 92.91 C 84.43 96.57 83.29 99.79 83.77 103.92 C 82.83 102.47 82.00 100.92 80.96 99.53 C 76.95 102.67 72.04 98.48 71.49 104.61 C 70.70 104.88 65.29 107.08 68.01 104.96 C 72.57 101.76 65.54 100.74 66.49 96.19 C 63.03 95.91 56.43 98.40 55.01 93.96 C 49.41 88.91 42.74 93.20 38.09 86.55 C 34.68 85.74 31.49 85.37 28.06 84.18 C 25.03 83.94 23.12 83.75 20.70 81.78 C 26.62 78.51 36.32 83.33 42.80 83.43 C 47.19 84.30 51.45 83.99 55.89 84.00 C 60.09 85.18 63.80 86.63 68.19 85.41 C 74.67 85.45 80.60 88.77 86.91 87.84 C 87.27 82.48 83.61 76.92 80.87 72.54 C 77.76 74.04 75.92 72.16 72.98 71.20 L 73.87 70.79 C 74.85 70.33 75.83 69.85 76.80 69.37 C 87.08 69.56 96.67 68.51 106.62 65.80 Z M 118.12 86.03 C 120.36 85.88 122.78 86.44 125.03 86.70 C 122.52 83.59 116.45 82.25 115.18 87.14 C 113.93 90.82 116.87 86.30 118.12 86.03 Z M 125.61 92.24 C 123.32 91.93 118.02 93.83 123.82 93.63 C 127.22 97.76 119.47 101.72 115.34 99.63 C 109.59 98.33 117.30 102.38 119.01 101.98 C 125.62 101.63 124.21 95.02 129.76 94.69 C 125.32 93.45 126.85 88.66 130.99 89.54 C 127.32 85.95 127.07 89.29 125.61 92.24 Z M 155.76 102.27 C 157.89 103.06 160.78 105.10 162.69 102.91 C 162.19 100.56 161.36 98.27 160.51 96.04 C 159.25 99.86 160.07 100.69 155.76 102.27 C 157.05 98.51 158.95 94.89 159.93 91.05 C 158.09 89.87 153.78 101.72 155.76 102.27 Z M 133.22 94.73 C 133.32 96.84 130.73 101.31 134.80 100.61 C 138.05 101.37 137.10 96.98 137.78 94.96 C 136.02 96.50 135.66 98.53 134.80 100.61 C 134.02 98.79 135.46 95.35 133.22 94.73 C 133.50 89.24 128.38 94.37 133.22 94.73 Z M 144.32 98.11 C 143.98 90.75 137.06 98.03 139.67 101.30 C 144.13 103.63 145.80 100.92 146.75 96.89 C 147.49 94.58 144.45 97.35 144.32 98.11 Z M 148.30 96.31 C 148.07 98.23 146.37 100.75 148.66 101.93 C 148.54 100.68 151.40 94.65 148.30 96.31 Z M 153.39 96.47 C 150.76 97.61 151.08 99.48 151.00 101.95 C 151.33 101.03 156.81 94.17 153.39 96.47 Z" id="p41" />
<path d="M 125.82 66.20 C 128.41 68.36 127.73 69.17 126.95 72.11 C 124.56 71.94 122.23 71.61 119.92 70.97 C 121.89 69.40 123.71 67.57 125.82 66.20 Z" id="p42" />
<path d="M 161.45 65.86 L 162.06 66.07 C 162.37 69.92 159.03 68.60 156.74 70.72 C 153.99 73.40 149.31 70.95 147.00 68.78 C 150.09 69.12 153.86 72.29 156.24 69.24 C 157.76 67.29 160.38 67.96 161.45 65.86 Z" id="p43" />
<path d="M 46.85 67.21 C 51.50 68.19 56.07 69.58 60.76 70.37 C 64.89 71.28 68.73 70.96 72.98 71.20 C 75.92 72.16 77.76 74.04 80.87 72.54 C 83.61 76.92 87.27 82.48 86.91 87.84 C 80.60 88.77 74.67 85.45 68.19 85.41 C 64.08 84.85 60.10 83.73 56.03 82.96 C 51.39 81.26 47.41 82.62 42.80 83.43 C 36.32 83.33 26.62 78.51 20.70 81.78 C 19.49 81.89 18.28 82.00 17.07 82.09 C 12.81 76.12 20.18 76.28 23.26 73.24 C 31.31 69.24 38.21 68.79 46.85 67.21 Z" id="p44" />
<path d="M 138.07 67.12 C 141.29 66.64 144.04 67.71 147.00 68.78 C 143.77 69.39 142.52 67.85 144.11 71.79 C 142.52 70.56 137.90 69.45 138.07 67.12 Z" id="p45" />
<path d="M 60.76 70.37 C 64.77 69.97 68.78 69.95 72.81 69.91 L 73.87 70.79 L 72.98 71.20 C 68.73 70.96 64.89 71.28 60.76 70.37 Z" id="p46" />
<path d="M 23.26 73.24 C 20.18 76.28 12.81 76.12 17.07 82.09 C 19.65 84.50 18.38 84.17 16.43 86.29 C 14.94 85.74 13.44 85.26 11.91 84.83 C 12.19 81.98 11.98 79.12 12.22 76.27 C 15.47 74.08 19.27 71.04 23.26 73.24 Z" id="p47" />
<path d="M 162.13 81.31 C 161.49 84.38 163.42 87.22 159.00 87.17 L 159.30 86.41 C 163.13 83.57 160.02 82.37 156.95 82.11 C 155.83 78.87 155.70 79.21 152.23 78.88 C 151.76 77.11 151.37 76.19 149.90 75.07 C 154.05 73.23 157.82 80.29 162.13 81.31 Z" id="p48" />
<path d="M 89.49 77.96 C 91.47 80.90 91.95 84.70 93.56 87.89 C 95.25 80.71 95.65 91.60 95.63 93.47 C 99.77 96.79 99.96 97.46 100.35 102.84 C 103.42 111.33 101.33 119.21 101.74 127.85 C 99.39 128.09 97.54 128.46 95.98 126.33 C 101.84 127.54 99.64 125.60 99.87 121.08 C 94.81 124.41 97.88 120.37 95.29 117.57 C 96.25 114.01 92.90 115.54 91.19 116.64 C 91.02 115.13 90.92 113.61 90.71 112.10 C 87.46 112.22 88.75 115.21 89.61 117.07 C 83.18 118.26 85.30 109.64 82.13 105.96 C 83.06 113.35 84.87 120.33 84.87 127.93 C 81.99 128.25 80.57 123.04 79.23 121.07 C 78.14 127.71 78.71 134.89 76.36 141.20 C 74.95 146.77 70.61 151.05 68.47 156.41 C 67.38 159.54 64.96 161.22 62.79 163.55 C 60.14 163.94 58.27 162.76 56.10 161.45 C 57.40 160.89 62.36 160.42 58.01 160.08 C 53.70 160.04 52.66 156.55 50.31 153.68 C 42.48 145.10 41.03 131.44 39.62 120.34 C 39.25 117.60 40.05 115.66 37.29 114.02 C 38.00 118.63 38.38 123.21 37.79 127.86 C 29.67 129.58 35.05 123.19 31.42 118.72 C 31.10 111.78 27.83 104.91 24.16 99.08 C 24.02 101.40 23.99 103.70 23.76 106.01 C 21.05 104.01 19.91 100.06 18.43 97.12 C 20.34 94.21 19.98 91.25 20.30 87.95 C 22.58 89.93 21.24 94.94 22.80 95.71 C 23.37 90.92 22.28 88.40 27.97 87.32 C 26.49 86.82 23.13 87.50 22.89 85.51 C 24.59 85.15 30.49 87.62 28.06 84.18 C 31.49 85.37 34.68 85.74 38.09 86.55 C 42.74 93.20 49.41 88.91 55.01 93.96 C 56.43 98.40 63.03 95.91 66.49 96.19 C 65.54 100.74 72.57 101.76 68.01 104.96 C 65.29 107.08 70.70 104.88 71.49 104.61 C 72.04 98.48 76.95 102.67 80.96 99.53 C 82.00 100.92 82.83 102.47 83.77 103.92 C 83.29 99.79 84.43 96.57 82.50 92.91 C 88.48 92.34 86.32 94.86 89.50 97.95 C 88.91 94.72 93.41 85.30 88.12 85.19 C 88.85 82.68 89.78 80.67 89.49 77.96 Z M 54.20 99.56 C 51.37 103.44 49.38 107.79 46.75 111.77 C 44.03 111.49 42.06 109.59 39.10 110.11 C 37.96 115.60 45.69 115.32 48.39 113.17 C 49.57 110.64 50.82 108.17 52.50 105.93 C 53.99 107.39 54.96 107.84 57.04 108.08 C 57.88 109.19 58.64 112.09 59.83 112.51 C 60.82 110.09 59.83 108.04 57.04 108.08 C 58.91 106.75 62.67 105.78 60.26 102.90 C 58.84 100.42 59.20 104.95 58.63 105.77 C 56.63 106.07 54.51 105.96 52.50 105.93 C 52.97 103.64 59.84 98.98 54.20 99.56 C 48.79 98.83 37.89 96.92 40.12 106.04 C 41.95 97.60 47.77 100.86 54.20 99.56 Z M 71.11 115.38 C 69.11 112.09 70.03 111.06 68.02 115.21 C 66.89 114.04 66.97 110.71 65.34 113.40 C 64.23 116.61 69.15 116.16 71.11 115.38 C 74.51 119.40 71.54 109.80 76.30 109.65 C 74.90 107.64 76.18 107.03 76.87 105.05 C 73.07 104.81 72.32 112.73 71.11 115.38 Z M 64.28 108.31 C 63.17 108.62 61.55 110.37 62.22 111.57 C 63.43 112.35 66.26 108.57 64.28 108.31 Z" id="p49" />
<path d="M 17.07 82.09 C 18.28 82.00 19.49 81.89 20.70 81.78 C 23.12 83.75 25.03 83.94 28.06 84.18 C 30.49 87.62 24.59 85.15 22.89 85.51 C 23.13 87.50 26.49 86.82 27.97 87.32 C 22.28 88.40 23.37 90.92 22.80 95.71 C 21.24 94.94 22.58 89.93 20.30 87.95 C 19.98 91.25 20.34 94.21 18.43 97.12 C 19.91 100.06 21.05 104.01 23.76 106.01 C 23.99 103.70 24.02 101.40 24.16 99.08 C 27.83 104.91 31.10 111.78 31.42 118.72 C 35.05 123.19 29.67 129.58 37.79 127.86 C 38.38 123.21 38.00 118.63 37.29 114.02 C 40.05 115.66 39.25 117.60 39.62 120.34 C 41.03 131.44 42.48 145.10 50.31 153.68 C 52.66 156.55 53.70 160.04 58.01 160.08 C 62.36 160.42 57.40 160.89 56.10 161.45 C 58.27 162.76 60.14 163.94 62.79 163.55 C 65.04 164.99 67.27 164.51 69.80 164.58 C 76.19 165.22 83.44 165.69 86.94 171.97 C 84.40 171.44 82.19 170.25 79.82 169.29 C 74.49 168.19 69.56 170.40 64.67 167.34 C 60.62 163.67 53.99 167.38 50.12 169.80 C 51.68 170.19 53.19 170.56 54.80 170.70 C 61.18 171.20 67.86 171.23 74.23 170.59 C 75.78 171.07 82.74 169.77 79.61 172.62 C 77.37 175.53 82.55 176.11 84.22 177.00 L 71.26 177.00 C 70.22 176.56 69.17 176.13 68.12 175.70 C 66.69 174.50 65.57 174.62 63.89 175.26 C 59.03 174.82 54.83 172.57 50.20 171.46 C 46.65 172.37 43.37 174.84 40.45 177.00 L 28.30 177.00 C 31.75 172.61 38.53 172.03 43.64 171.59 C 45.29 170.98 48.34 171.66 47.89 169.12 C 41.02 168.07 33.28 172.52 26.81 170.07 C 26.93 163.92 31.05 170.61 31.83 164.91 C 32.18 154.74 32.05 144.46 31.88 134.28 C 30.10 134.85 31.71 141.55 29.83 143.84 C 28.45 143.09 27.22 142.15 25.91 141.29 C 24.56 148.89 21.91 157.91 24.59 165.36 C 25.31 167.27 19.89 170.23 21.80 171.88 C 23.42 174.02 23.69 174.36 22.98 177.00 L 19.91 177.00 C 19.48 175.03 19.08 173.05 18.72 171.07 C 19.37 169.14 19.64 167.60 18.18 165.96 C 18.05 163.96 17.93 161.97 17.82 159.97 C 18.43 158.01 18.43 156.67 17.17 154.99 C 16.95 151.72 16.95 148.47 17.26 145.21 C 17.93 140.27 19.79 135.79 20.94 131.01 C 21.15 128.63 20.05 129.29 18.33 128.67 C 14.83 127.96 11.65 126.95 8.33 125.65 C 7.62 125.32 6.93 125.21 6.25 125.30 C 4.70 129.22 4.02 133.68 3.31 137.83 C 3.05 140.14 2.92 142.45 2.74 144.77 C 1.72 147.96 1.79 150.04 2.68 153.24 C 3.63 161.53 5.86 169.05 8.15 177.00 L 0.00 177.00 L 0.00 116.18 C 1.92 112.79 4.52 109.80 6.15 106.27 C 8.74 107.03 7.73 105.97 8.35 103.97 C 9.72 108.19 9.16 117.05 10.91 119.76 C 9.72 110.37 13.99 102.79 14.50 93.81 C 16.59 93.13 15.27 92.38 15.12 90.71 L 15.32 89.96 C 15.70 88.74 16.06 87.51 16.43 86.29 C 18.38 84.17 19.65 84.50 17.07 82.09 Z" id="p50" />
<path d="M 56.03 82.96 L 55.89 84.00 C 51.45 83.99 47.19 84.30 42.80 83.43 C 47.41 82.62 51.39 81.26 56.03 82.96 Z" id="p51" />
<path d="M 56.03 82.96 C 60.10 83.73 64.08 84.85 68.19 85.41 C 63.80 86.63 60.09 85.18 55.89 84.00 L 56.03 82.96 Z" id="p52" />
<path d="M 206.27 82.42 C 206.73 82.93 207.18 83.45 207.61 83.99 C 203.96 83.68 203.16 85.57 200.91 87.84 C 201.02 83.99 203.00 83.41 206.27 82.42 Z" id="p53" />
<path d="M 125.03 86.70 C 122.78 86.44 120.36 85.88 118.12 86.03 C 116.87 86.30 113.93 90.82 115.18 87.14 C 116.45 82.25 122.52 83.59 125.03 86.70 Z" id="p54" />
<path d="M 11.91 84.83 C 13.44 85.26 14.94 85.74 16.43 86.29 C 16.06 87.51 15.70 88.74 15.32 89.96 C 14.93 89.25 14.51 88.55 14.08 87.87 C 10.57 92.42 4.48 96.87 8.20 103.21 L 8.35 103.97 C 7.73 105.97 8.74 107.03 6.15 106.27 C 4.96 102.56 4.40 98.15 5.37 94.35 C 7.88 90.80 11.73 89.65 11.91 84.83 Z" id="p55" />
<path d="M 14.08 87.87 C 14.51 88.55 14.93 89.25 15.32 89.96 L 15.12 90.71 C 11.76 93.91 10.09 99.04 8.20 103.21 C 4.48 96.87 10.57 92.42 14.08 87.87 Z" id="p56" />
<path d="M 130.99 89.54 C 126.85 88.66 125.32 93.45 129.76 94.69 C 124.21 95.02 125.62 101.63 119.01 101.98 C 117.30 102.38 109.59 98.33 115.34 99.63 C 119.47 101.72 127.22 97.76 123.82 93.63 C 118.02 93.83 123.32 91.93 125.61 92.24 C 127.07 89.29 127.32 85.95 130.99 89.54 Z" id="p57" />
<path d="M 213.01 88.29 C 212.98 89.74 212.98 91.18 212.89 92.63 C 211.55 92.14 205.62 92.19 209.86 90.97 C 211.41 90.54 212.01 89.41 213.01 88.29 Z" id="p58" />
<path d="M 15.12 90.71 C 15.27 92.38 16.59 93.13 14.50 93.81 C 13.99 102.79 9.72 110.37 10.91 119.76 C 9.16 117.05 9.72 108.19 8.35 103.97 L 8.20 103.21 C 10.09 99.04 11.76 93.91 15.12 90.71 Z" id="p59" />
<path d="M 159.93 91.05 C 158.95 94.89 157.05 98.51 155.76 102.27 C 153.78 101.72 158.09 89.87 159.93 91.05 Z" id="p60" />
<path d="M 224.25 91.87 C 227.83 94.06 226.25 96.70 226.37 100.16 C 223.90 98.86 224.93 97.07 224.63 94.83 C 222.54 95.06 222.35 89.30 224.25 91.87 Z" id="p61" />
<path d="M 133.22 94.73 C 128.38 94.37 133.50 89.24 133.22 94.73 Z" id="p62" />
<path d="M 243.07 92.04 C 246.24 95.54 245.45 97.42 245.04 101.78 C 244.36 101.56 243.69 101.31 243.03 101.06 C 244.07 97.96 243.34 95.17 243.07 92.04 Z" id="p63" />
<path d="M 233.06 92.72 C 235.90 93.84 235.15 97.88 235.17 100.37 C 233.40 98.78 233.04 96.84 232.18 94.74 C 230.43 92.02 228.87 97.26 229.87 98.14 C 230.03 98.57 233.10 100.82 230.99 99.99 C 225.46 99.71 228.05 91.57 233.06 92.72 Z" id="p64" />
<path d="M 238.20 95.47 C 239.04 94.85 243.35 92.71 241.22 95.38 C 239.77 96.40 239.01 100.54 237.57 97.43 C 234.65 95.58 237.69 90.59 238.20 95.47 Z" id="p65" />
<path d="M 216.12 94.13 C 217.96 93.84 219.97 98.54 220.88 100.02 C 217.14 100.09 215.42 97.76 216.12 94.13 Z" id="p66" />
<path d="M 133.22 94.73 C 135.46 95.35 134.02 98.79 134.80 100.61 C 130.73 101.31 133.32 96.84 133.22 94.73 Z" id="p67" />
<path d="M 137.78 94.96 C 137.10 96.98 138.05 101.37 134.80 100.61 C 135.66 98.53 136.02 96.50 137.78 94.96 Z" id="p68" />
<path d="M 144.32 98.11 C 140.71 94.05 141.73 98.19 141.21 100.91 C 143.30 101.07 143.35 99.53 144.32 98.11 C 144.45 97.35 147.49 94.58 146.75 96.89 C 145.80 100.92 144.13 103.63 139.67 101.30 C 137.06 98.03 143.98 90.75 144.32 98.11 Z" id="p69" />
<path d="M 211.08 95.18 C 211.05 101.68 204.03 100.34 199.77 99.24 C 205.41 99.23 207.22 99.42 211.08 95.18 Z" id="p70" />
<path d="M 144.32 98.11 C 143.35 99.53 143.30 101.07 141.21 100.91 C 141.73 98.19 140.71 94.05 144.32 98.11 Z" id="p71" />
<path d="M 148.30 96.31 C 151.40 94.65 148.54 100.68 148.66 101.93 C 146.37 100.75 148.07 98.23 148.30 96.31 Z" id="p72" />
<path d="M 153.39 96.47 C 156.81 94.17 151.33 101.03 151.00 101.95 C 151.08 99.48 150.76 97.61 153.39 96.47 Z" id="p73" />
<path d="M 160.51 96.04 C 161.36 98.27 162.19 100.56 162.69 102.91 C 160.78 105.10 157.89 103.06 155.76 102.27 C 160.07 100.69 159.25 99.86 160.51 96.04 Z" id="p74" />
<path d="M 197.16 96.39 C 198.75 95.64 199.52 98.11 199.77 99.24 C 198.47 99.00 196.22 98.07 197.16 96.39 Z" id="p75" />
<path d="M 54.20 99.56 C 47.77 100.86 41.95 97.60 40.12 106.04 C 37.89 96.92 48.79 98.83 54.20 99.56 Z" id="p76" />
<path d="M 52.50 105.93 C 50.82 108.17 49.57 110.64 48.39 113.17 C 45.69 115.32 37.96 115.60 39.10 110.11 C 42.06 109.59 44.03 111.49 46.75 111.77 C 49.38 107.79 51.37 103.44 54.20 99.56 C 59.84 98.98 52.97 103.64 52.50 105.93 Z" id="p77" />
<path d="M 60.26 102.90 C 62.67 105.78 58.91 106.75 57.04 108.08 C 54.96 107.84 53.99 107.39 52.50 105.93 C 54.51 105.96 56.63 106.07 58.63 105.77 C 59.20 104.95 58.84 100.42 60.26 102.90 Z" id="p78" />
<path d="M 176.18 102.95 C 179.29 102.97 180.80 104.50 182.75 106.62 C 182.28 102.47 187.04 107.08 189.38 106.63 C 201.49 107.87 209.51 120.53 221.02 121.37 C 216.89 124.70 214.28 121.25 210.32 119.70 C 204.88 117.28 201.54 113.80 195.96 113.14 C 200.86 116.55 206.17 119.99 211.66 122.37 C 213.52 123.20 219.64 128.18 214.82 128.89 C 214.46 126.06 209.69 121.64 208.27 126.13 C 211.24 131.08 214.45 130.85 219.66 131.40 C 222.50 131.09 223.13 137.16 220.15 135.79 C 215.14 133.01 209.86 131.36 205.27 127.72 C 201.45 125.43 198.40 121.20 194.13 119.93 C 195.35 125.02 200.57 124.84 200.18 130.58 C 201.90 127.18 209.78 131.45 206.51 133.44 C 203.53 135.48 208.37 134.15 207.56 137.35 C 207.06 141.85 212.30 139.13 212.45 144.58 C 219.12 142.88 217.04 146.84 222.00 149.92 C 215.65 150.48 213.20 146.22 208.10 143.95 C 208.78 147.65 218.76 150.96 213.89 153.74 C 208.74 152.52 206.62 147.31 202.12 146.10 C 201.50 148.61 203.56 149.31 204.75 151.14 C 205.83 153.35 198.07 149.86 200.36 152.71 C 203.62 153.68 208.16 151.39 208.85 155.88 C 205.58 158.45 199.25 156.14 195.40 155.82 C 199.03 152.37 190.57 155.22 196.86 152.29 C 190.52 152.54 192.14 147.78 187.40 145.22 C 186.44 147.57 185.57 149.94 184.39 152.19 L 184.10 150.19 C 184.04 148.75 183.94 147.32 183.81 145.89 C 182.76 136.86 181.43 127.89 180.45 118.85 L 180.37 117.97 C 179.88 112.71 178.88 107.56 176.18 102.95 Z" id="p79" />
<path d="M 252.95 104.12 C 254.10 111.01 250.80 114.44 249.42 120.87 C 251.02 121.07 252.63 121.19 254.24 121.32 L 252.96 122.00 C 250.76 122.04 248.55 121.97 246.36 122.10 C 248.00 130.97 253.73 138.59 255.30 147.77 C 255.04 152.08 254.43 156.02 255.78 160.23 C 255.65 166.13 255.39 171.50 258.05 177.00 L 241.91 177.00 C 237.67 173.17 242.08 174.49 244.91 173.66 C 244.69 170.34 241.99 169.81 239.81 167.92 C 240.88 167.02 245.57 166.85 243.00 164.98 C 239.85 162.54 247.21 161.98 248.52 161.76 C 246.93 158.90 247.67 156.50 248.12 153.44 C 250.49 154.93 249.80 154.79 250.71 152.32 C 239.58 150.39 230.33 148.12 222.04 140.03 C 230.30 142.35 239.26 149.39 247.84 148.84 C 247.24 145.92 246.77 144.29 247.81 141.37 C 238.83 139.48 227.00 136.64 222.09 128.01 C 226.50 127.61 229.99 132.80 234.04 133.93 C 238.95 134.53 244.09 133.29 249.02 132.62 C 244.78 129.88 238.36 131.69 234.97 128.33 C 236.94 127.93 239.56 128.27 241.30 127.28 C 242.11 125.08 244.35 122.07 240.55 121.73 C 244.08 117.95 237.59 117.21 243.10 114.98 C 237.57 113.01 244.39 112.41 239.61 111.40 C 237.32 110.60 246.03 106.49 241.13 107.04 C 245.64 103.78 249.00 111.43 252.95 104.12 Z" id="p80" />
<path d="M 76.87 105.05 C 76.18 107.03 74.90 107.64 76.30 109.65 C 71.54 109.80 74.51 119.40 71.11 115.38 C 72.32 112.73 73.07 104.81 76.87 105.05 Z" id="p81" />
<path d="M 82.13 105.96 C 85.30 109.64 83.18 118.26 89.61 117.07 C 88.75 115.21 87.46 112.22 90.71 112.10 C 90.92 113.61 91.02 115.13 91.19 116.64 C 92.90 115.54 96.25 114.01 95.29 117.57 C 89.41 119.75 91.70 131.25 90.90 136.14 L 90.06 135.93 C 89.85 130.61 90.28 125.21 89.74 119.94 C 87.03 125.08 87.51 132.55 89.13 137.98 C 89.93 144.31 91.81 150.96 90.16 157.05 C 89.69 159.42 90.05 161.30 90.96 163.50 C 91.05 164.92 91.17 166.34 91.31 167.76 C 91.23 169.56 91.15 171.37 91.01 173.17 C 85.96 175.78 91.37 164.79 87.12 168.41 C 82.12 165.18 75.75 162.91 69.80 164.58 C 67.27 164.51 65.04 164.99 62.79 163.55 C 64.96 161.22 67.38 159.54 68.47 156.41 C 70.61 151.05 74.95 146.77 76.36 141.20 C 78.71 134.89 78.14 127.71 79.23 121.07 C 80.57 123.04 81.99 128.25 84.87 127.93 C 84.87 120.33 83.06 113.35 82.13 105.96 Z" id="p82" />
<path d="M 284.00 105.85 L 284.00 137.95 C 278.32 137.62 280.68 139.69 279.71 143.80 C 276.49 144.30 273.81 144.37 271.01 142.49 C 270.19 148.08 267.18 153.14 266.91 158.68 C 270.56 155.07 267.99 162.38 270.20 158.25 C 271.24 153.78 271.82 166.77 269.58 163.29 C 266.81 159.36 267.90 170.73 268.84 166.80 C 271.26 162.45 269.27 169.35 268.85 170.72 C 267.95 173.15 268.17 175.45 265.78 177.00 L 261.85 177.00 C 264.33 170.07 263.74 163.11 265.03 156.00 L 265.34 154.25 C 266.08 151.43 266.06 148.62 265.84 145.74 C 265.85 143.49 265.39 141.34 264.85 139.18 C 264.05 135.84 263.27 132.47 262.86 129.07 C 265.30 130.24 267.06 129.72 269.45 128.80 C 269.18 123.17 267.82 118.10 268.31 112.41 C 275.11 112.36 277.01 105.80 284.00 105.85 Z" id="p83" />
<path d="M 57.04 108.08 C 59.83 108.04 60.82 110.09 59.83 112.51 C 58.64 112.09 57.88 109.19 57.04 108.08 Z" id="p84" />
<path d="M 64.28 108.31 C 66.26 108.57 63.43 112.35 62.22 111.57 C 61.55 110.37 63.17 108.62 64.28 108.31 Z" id="p85" />
<path d="M 68.02 115.21 C 70.03 111.06 69.11 112.09 71.11 115.38 C 69.15 116.16 64.23 116.61 65.34 113.40 C 66.97 110.71 66.89 114.04 68.02 115.21 Z" id="p86" />
<path d="M 180.37 117.97 L 180.45 118.85 C 179.61 125.41 179.77 117.92 175.90 119.03 C 174.54 118.86 173.17 118.73 171.80 118.63 C 174.65 117.82 177.43 117.99 180.37 117.97 Z" id="p87" />
<path d="M 170.95 118.86 L 170.83 119.77 C 169.89 121.53 170.78 124.48 167.97 123.14 C 167.85 122.11 167.72 121.08 167.59 120.04 C 168.70 119.59 169.82 119.20 170.95 118.86 Z" id="p88" />
<path d="M 170.95 118.86 L 171.80 118.63 C 173.17 118.73 174.54 118.86 175.90 119.03 C 178.35 130.96 181.15 141.37 177.91 153.57 C 177.23 153.49 176.56 153.39 175.88 153.27 C 175.01 149.60 174.02 146.13 171.84 142.99 C 172.56 138.23 173.29 135.56 170.88 131.12 C 169.17 127.69 171.14 123.71 170.83 119.77 L 170.95 118.86 Z" id="p89" />
<path d="M 175.90 119.03 C 179.77 117.92 179.61 125.41 180.45 118.85 C 181.43 127.89 182.76 136.86 183.81 145.89 C 178.78 143.62 181.60 148.02 183.11 150.05 C 182.78 154.94 181.47 159.72 180.74 164.58 C 180.10 164.49 179.46 164.39 178.82 164.27 C 178.51 163.43 178.20 162.59 177.89 161.75 C 177.21 158.92 176.53 156.10 175.88 153.27 C 176.56 153.39 177.23 153.49 177.91 153.57 C 181.15 141.37 178.35 130.96 175.90 119.03 Z" id="p90" />
<path d="M 261.80 118.83 C 261.90 119.86 262.01 120.89 262.13 121.92 C 261.61 123.57 261.52 124.68 262.73 126.02 L 262.58 126.83 C 261.48 130.88 262.13 134.69 262.69 138.75 C 260.99 139.78 258.24 141.84 256.29 141.67 C 254.17 139.73 253.87 135.41 253.19 132.70 C 251.56 129.55 249.15 127.02 248.13 123.44 C 249.83 122.98 251.42 122.88 252.96 122.00 L 254.24 121.32 C 256.68 120.21 259.18 119.42 261.80 118.83 Z M 260.12 129.01 C 259.92 126.34 260.05 123.74 259.79 121.08 C 252.18 120.35 255.70 128.45 255.36 133.03 C 255.07 135.78 256.45 138.78 259.68 137.76 C 262.35 136.46 259.99 131.36 260.12 129.01 Z" id="p91" />
<path d="M 89.74 119.94 C 90.28 125.21 89.85 130.61 90.06 135.93 L 90.09 137.66 L 89.13 137.98 C 87.51 132.55 87.03 125.08 89.74 119.94 Z" id="p92" />
<path d="M 170.83 119.77 C 171.14 123.71 169.17 127.69 170.88 131.12 C 173.29 135.56 172.56 138.23 171.84 142.99 C 169.85 136.57 168.88 129.79 167.97 123.14 C 170.78 124.48 169.89 121.53 170.83 119.77 Z" id="p93" />
<path d="M 259.79 121.08 C 260.05 123.74 259.92 126.34 260.12 129.01 C 259.99 131.36 262.35 136.46 259.68 137.76 C 256.45 138.78 255.07 135.78 255.36 133.03 C 255.70 128.45 252.18 120.35 259.79 121.08 Z" id="p94" />
<path d="M 246.36 122.10 C 248.55 121.97 250.76 122.04 252.96 122.00 C 251.42 122.88 249.83 122.98 248.13 123.44 C 249.15 127.02 251.56 129.55 253.19 132.70 C 253.87 135.41 254.17 139.73 256.29 141.67 C 258.24 141.84 260.99 139.78 262.69 138.75 C 262.13 134.69 261.48 130.88 262.58 126.83 L 262.86 129.07 C 263.27 132.47 264.05 135.84 264.85 139.18 C 263.02 140.58 260.99 141.68 259.24 143.15 C 262.62 147.92 261.64 152.52 263.18 157.79 C 263.81 157.22 264.43 156.62 265.03 156.00 C 263.74 163.11 264.33 170.07 261.85 177.00 L 258.05 177.00 C 255.39 171.50 255.65 166.13 255.78 160.23 C 255.95 156.21 256.52 151.64 255.30 147.77 C 253.73 138.59 248.00 130.97 246.36 122.10 Z" id="p95" />
<path d="M 262.13 121.92 C 263.57 123.19 263.39 124.38 262.73 126.02 C 261.52 124.68 261.61 123.57 262.13 121.92 Z" id="p96" />
<path d="M 6.25 125.30 C 6.93 125.21 7.62 125.32 8.33 125.65 L 9.09 127.01 C 9.21 130.70 8.77 134.31 8.30 137.96 C 11.33 138.20 11.01 136.54 12.22 134.43 C 14.48 133.03 15.77 130.96 17.26 128.85 L 18.33 128.67 C 19.12 132.29 16.91 136.03 16.60 139.76 C 14.82 150.98 17.58 163.39 14.27 175.33 C 13.39 176.20 11.48 176.37 11.12 174.91 C 8.07 167.83 5.13 159.30 8.96 151.96 C 10.07 147.03 6.00 145.57 4.08 140.84 C 3.83 139.84 3.57 138.84 3.31 137.83 C 4.02 133.68 4.70 129.22 6.25 125.30 Z" id="p97" />
<path d="M 8.33 125.65 C 11.65 126.95 14.83 127.96 18.33 128.67 L 17.26 128.85 C 13.36 129.26 11.83 130.25 12.22 134.43 C 8.14 136.08 11.23 129.02 9.09 127.01 L 8.33 125.65 Z" id="p98" />
<path d="M 9.09 127.01 C 11.23 129.02 8.14 136.08 12.22 134.43 C 11.01 136.54 11.33 138.20 8.30 137.96 C 8.77 134.31 9.21 130.70 9.09 127.01 Z" id="p99" />
<path d="M 17.26 128.85 C 15.77 130.96 14.48 133.03 12.22 134.43 C 11.83 130.25 13.36 129.26 17.26 128.85 Z" id="p100" />
<path d="M 18.33 128.67 C 20.05 129.29 21.15 128.63 20.94 131.01 C 19.79 135.79 17.93 140.27 17.26 145.21 C 17.08 143.39 16.82 141.57 16.60 139.76 C 16.91 136.03 19.12 132.29 18.33 128.67 Z" id="p101" />
<path d="M 31.88 134.28 C 32.05 144.46 32.18 154.74 31.83 164.91 C 31.05 170.61 26.93 163.92 26.81 170.07 C 25.14 170.67 23.46 171.25 21.80 171.88 C 19.89 170.23 25.31 167.27 24.59 165.36 C 21.91 157.91 24.56 148.89 25.91 141.29 C 27.22 142.15 28.45 143.09 29.83 143.84 C 31.71 141.55 30.10 134.85 31.88 134.28 Z" id="p102" />
<path d="M 90.06 135.93 L 90.90 136.14 C 93.51 137.02 96.14 136.99 98.86 137.03 C 97.39 140.64 98.97 145.65 96.03 148.19 C 91.50 145.85 94.18 140.88 90.09 137.66 L 90.06 135.93 Z" id="p103" />
<path d="M 98.86 137.03 C 104.39 135.14 101.02 145.83 102.19 148.89 L 100.66 147.73 C 101.06 144.49 101.17 141.23 100.81 137.97 C 96.15 141.26 102.56 151.99 93.16 149.60 C 90.66 152.32 92.79 159.65 90.96 163.50 C 90.05 161.30 89.69 159.42 90.16 157.05 C 91.81 150.96 89.93 144.31 89.13 137.98 L 90.09 137.66 C 94.18 140.88 91.50 145.85 96.03 148.19 C 98.97 145.65 97.39 140.64 98.86 137.03 Z" id="p104" />
<path d="M 3.31 137.83 C 3.57 138.84 3.83 139.84 4.08 140.84 C 4.19 144.76 5.41 146.24 7.88 149.00 C 7.44 151.54 5.91 153.13 4.41 155.08 C 5.36 162.37 7.40 170.06 9.86 177.00 L 8.15 177.00 C 5.86 169.05 3.63 161.53 2.68 153.24 C 2.95 150.37 2.97 147.64 2.74 144.77 C 2.92 142.45 3.05 140.14 3.31 137.83 Z" id="p105" />
<path d="M 100.81 137.97 C 101.17 141.23 101.06 144.49 100.66 147.73 C 99.40 152.55 101.38 156.28 95.30 157.39 C 96.29 164.15 99.25 169.56 97.92 177.00 L 91.89 177.00 C 92.10 173.87 92.15 170.81 91.31 167.76 C 91.17 166.34 91.05 164.92 90.96 163.50 C 92.79 159.65 90.66 152.32 93.16 149.60 C 102.56 151.99 96.15 141.26 100.81 137.97 Z" id="p106" />
<path d="M 284.00 137.95 L 284.00 177.00 L 265.78 177.00 C 268.17 175.45 267.95 173.15 268.85 170.72 C 269.27 169.35 271.26 162.45 268.84 166.80 C 267.90 170.73 266.81 159.36 269.58 163.29 C 271.82 166.77 271.24 153.78 270.20 158.25 C 267.99 162.38 270.56 155.07 266.91 158.68 C 267.18 153.14 270.19 148.08 271.01 142.49 C 273.81 144.37 276.49 144.30 279.71 143.80 C 280.68 139.69 278.32 137.62 284.00 137.95 Z" id="p107" />
<path d="M 264.85 139.18 C 265.39 141.34 265.85 143.49 265.84 145.74 C 264.69 148.57 265.01 151.29 265.34 154.25 L 265.03 156.00 C 264.43 156.62 263.81 157.22 263.18 157.79 C 261.64 152.52 262.62 147.92 259.24 143.15 C 260.99 141.68 263.02 140.58 264.85 139.18 Z" id="p108" />
<path d="M 16.60 139.76 C 16.82 141.57 17.08 143.39 17.26 145.21 C 16.95 148.47 16.95 151.72 17.17 154.99 C 16.84 156.68 16.71 158.28 17.12 159.97 C 16.91 165.65 17.08 171.32 16.90 177.00 L 9.86 177.00 C 7.40 170.06 5.36 162.37 4.41 155.08 C 5.91 153.13 7.44 151.54 7.88 149.00 C 5.41 146.24 4.19 144.76 4.08 140.84 C 6.00 145.57 10.07 147.03 8.96 151.96 C 5.13 159.30 8.07 167.83 11.12 174.91 C 11.48 176.37 13.39 176.20 14.27 175.33 C 17.58 163.39 14.82 150.98 16.60 139.76 Z" id="p109" />
<path d="M 171.84 142.99 C 174.02 146.13 175.01 149.60 175.88 153.27 C 176.53 156.10 177.21 158.92 177.89 161.75 C 176.91 164.58 175.79 167.36 174.76 170.17 C 174.04 167.87 173.26 165.57 172.70 163.23 C 173.00 158.99 173.46 154.95 172.31 150.77 C 172.07 148.18 172.00 145.59 171.84 142.99 Z" id="p110" />
<path d="M 2.74 144.77 C 2.97 147.64 2.95 150.37 2.68 153.24 C 1.79 150.04 1.72 147.96 2.74 144.77 Z" id="p111" />
<path d="M 183.81 145.89 C 183.94 147.32 184.04 148.75 184.10 150.19 L 183.11 150.05 C 181.60 148.02 178.78 143.62 183.81 145.89 Z" id="p112" />
<path d="M 169.30 145.97 C 171.62 147.60 170.91 151.64 171.68 154.22 C 171.94 157.34 171.90 160.29 172.70 163.23 C 173.26 165.57 174.04 167.87 174.76 170.17 C 174.91 172.44 174.96 174.72 174.96 177.00 L 148.43 177.00 C 153.94 172.25 162.93 169.88 169.69 173.27 C 172.19 173.90 174.69 175.32 173.80 171.34 C 164.82 169.12 152.65 168.73 146.51 177.00 L 101.88 177.00 C 102.06 169.60 102.12 162.16 101.81 154.76 C 101.96 152.81 102.10 150.85 102.19 148.89 C 103.11 152.18 103.52 155.54 104.23 158.88 C 104.37 161.86 108.11 158.93 108.89 162.09 C 110.46 163.96 112.49 174.38 114.68 167.69 C 116.69 160.12 109.70 156.41 112.19 148.00 C 114.55 152.89 118.49 156.50 120.55 161.49 C 122.44 162.41 125.01 161.13 124.34 164.09 C 123.44 166.62 127.61 166.19 129.17 166.82 C 132.76 167.87 133.56 163.57 137.05 165.95 C 142.64 169.73 147.84 168.01 154.04 168.80 C 158.10 169.02 161.94 168.42 165.29 165.97 C 160.46 161.94 156.34 163.85 150.85 164.75 C 145.38 166.05 141.64 162.74 136.11 162.67 C 135.97 160.31 140.65 160.67 142.04 159.10 C 141.77 158.38 137.34 153.70 139.91 154.20 C 144.67 157.93 150.20 157.76 156.00 158.08 C 160.37 158.14 164.51 158.18 167.45 154.43 C 169.52 152.18 168.82 148.87 169.30 145.97 Z" id="p113" />
<path d="M 265.84 145.74 C 266.06 148.62 266.08 151.43 265.34 154.25 C 265.01 151.29 264.69 148.57 265.84 145.74 Z" id="p114" />
<path d="M 100.66 147.73 L 102.19 148.89 C 102.10 150.85 101.96 152.81 101.81 154.76 C 100.74 156.89 96.68 160.71 99.16 162.84 C 102.17 166.26 101.33 172.96 100.05 177.00 L 97.92 177.00 C 99.25 169.56 96.29 164.15 95.30 157.39 C 101.38 156.28 99.40 152.55 100.66 147.73 Z" id="p115" />
<path d="M 255.30 147.77 C 256.52 151.64 255.95 156.21 255.78 160.23 C 254.43 156.02 255.04 152.08 255.30 147.77 Z" id="p116" />
<path d="M 183.11 150.05 L 184.10 150.19 L 184.39 152.19 C 185.50 158.43 183.93 165.17 182.39 171.23 C 181.59 170.12 180.77 169.04 179.94 167.95 C 179.56 166.72 179.20 165.50 178.82 164.27 C 179.46 164.39 180.10 164.49 180.74 164.58 C 181.47 159.72 182.78 154.94 183.11 150.05 Z" id="p117" />
<path d="M 172.31 150.77 C 173.46 154.95 173.00 158.99 172.70 163.23 C 171.90 160.29 171.94 157.34 171.68 154.22 C 171.89 153.07 172.10 151.92 172.31 150.77 Z" id="p118" />
<path d="M 17.17 154.99 C 18.43 156.67 18.43 158.01 17.82 159.97 L 17.12 159.97 C 16.71 158.28 16.84 156.68 17.17 154.99 Z" id="p119" />
<path d="M 101.81 154.76 C 102.12 162.16 102.06 169.60 101.88 177.00 L 100.05 177.00 C 101.33 172.96 102.17 166.26 99.16 162.84 C 96.68 160.71 100.74 156.89 101.81 154.76 Z" id="p120" />
<path d="M 17.12 159.97 L 17.82 159.97 C 17.93 161.97 18.05 163.96 18.18 165.96 C 17.62 167.87 17.47 169.38 18.72 171.07 C 19.08 173.05 19.48 175.03 19.91 177.00 L 16.90 177.00 C 17.08 171.32 16.91 165.65 17.12 159.97 Z" id="p121" />
<path d="M 177.89 161.75 C 178.20 162.59 178.51 163.43 178.82 164.27 C 179.20 165.50 179.56 166.72 179.94 167.95 C 180.05 170.54 180.43 172.77 181.23 175.23 L 180.78 177.00 L 174.96 177.00 C 174.96 174.72 174.91 172.44 174.76 170.17 C 175.79 167.36 176.91 164.58 177.89 161.75 Z" id="p122" />
<path d="M 87.12 168.41 C 91.37 164.79 85.96 175.78 91.01 173.17 C 90.93 175.32 90.46 175.79 88.78 177.00 L 84.22 177.00 C 82.55 176.11 77.37 175.53 79.61 172.62 C 82.74 169.77 75.78 171.07 74.23 170.59 C 67.96 169.98 60.93 168.89 54.80 170.70 C 53.19 170.56 51.68 170.19 50.12 169.80 C 53.99 167.38 60.62 163.67 64.67 167.34 C 69.56 170.40 74.49 168.19 79.82 169.29 C 82.19 170.25 84.40 171.44 86.94 171.97 C 83.44 165.69 76.19 165.22 69.80 164.58 C 75.75 162.91 82.12 165.18 87.12 168.41 Z" id="p123" />
<path d="M 18.18 165.96 C 19.64 167.60 19.37 169.14 18.72 171.07 C 17.47 169.38 17.62 167.87 18.18 165.96 Z" id="p124" />
<path d="M 91.31 167.76 C 92.15 170.81 92.10 173.87 91.89 177.00 L 88.78 177.00 C 90.46 175.79 90.93 175.32 91.01 173.17 C 91.15 171.37 91.23 169.56 91.31 167.76 Z" id="p125" />
<path d="M 179.94 167.95 C 180.77 169.04 181.59 170.12 182.39 171.23 C 182.04 172.57 181.64 173.91 181.23 175.23 C 180.43 172.77 180.05 170.54 179.94 167.95 Z" id="p126" />
<path d="M 47.89 169.12 C 48.34 171.66 45.29 170.98 43.64 171.59 C 38.53 172.03 31.75 172.61 28.30 177.00 L 22.98 177.00 C 23.69 174.36 23.42 174.02 21.80 171.88 C 23.46 171.25 25.14 170.67 26.81 170.07 C 33.28 172.52 41.02 168.07 47.89 169.12 Z" id="p127" />
<path d="M 74.23 170.59 C 67.86 171.23 61.18 171.20 54.80 170.70 C 60.93 168.89 67.96 169.98 74.23 170.59 Z" id="p128" />
<path d="M 173.80 171.34 C 174.69 175.32 172.19 173.90 169.69 173.27 C 162.93 169.88 153.94 172.25 148.43 177.00 L 146.51 177.00 C 152.65 168.73 164.82 169.12 173.80 171.34 Z" id="p129" />
<path d="M 50.20 171.46 C 54.83 172.57 59.03 174.82 63.89 175.26 C 65.31 176.52 66.44 176.37 68.12 175.70 C 69.17 176.13 70.22 176.56 71.26 177.00 L 40.45 177.00 C 43.37 174.84 46.65 172.37 50.20 171.46 Z" id="p130" />
<path d="M 63.89 175.26 C 65.57 174.62 66.69 174.50 68.12 175.70 C 66.44 176.37 65.31 176.52 63.89 175.26 Z" id="p131" />
</defs>
<g stroke-width="10pt">
<use stroke="#e4ddd5" xlink:href="#p0" />
<use stroke="#dcedd4" xlink:href="#p1" />
<use stroke="#ebe7d6" xlink:href="#p2" />
<use stroke="#d7ebd4" xlink:href="#p3" />
<use stroke="#defad3" xlink:href="#p4" />
<use stroke="#ebead6" xlink:href="#p5" />
<use stroke="#ded7d4" xlink:href="#p6" />
<use stroke="#cfd0d6" xlink:href="#p7" />
<use stroke="#050303" xlink:href="#p8" />
<use stroke="#a185ab" xlink:href="#p9" />
<use stroke="#b8a0d5" xlink:href="#p10" />
<use stroke="#603d52" xlink:href="#p11" />
<use stroke="#785789" xlink:href="#p12" />
<use stroke="#d2b1d8" xlink:href="#p13" />
<use stroke="#030203" xlink:href="#p14" />
<use stroke="#766f7f" xlink:href="#p15" />
<use stroke="#b495b1" xlink:href="#p16" />
<use stroke="#908684" xlink:href="#p17" />
<use stroke="#efd6d3" xlink:href="#p18" />
<use stroke="#f0d8d5" xlink:href="#p19" />
<use stroke="#d7c7d7" xlink:href="#p20" />
<use stroke="#5e1621" xlink:href="#p21" />
<use stroke="#b4140e" xlink:href="#p22" />
<use stroke="#7a5d72" xlink:href="#p23" />
<use stroke="#472226" xlink:href="#p24" />
<use stroke="#51080e" xlink:href="#p25" />
<use stroke="#410c0e" xlink:href="#p26" />
<use stroke="#e03136" xlink:href="#p27" />
<use stroke="#7069a3" xlink:href="#p28" />
<use stroke="#620609" xlink:href="#p29" />
<use stroke="#b43028" xlink:href="#p30" />
<use stroke="#bb0e06" xlink:href="#p31" />
<use stroke="#6f0f16" xlink:href="#p32" />
<use stroke="#ed430f" xlink:href="#p33" />
<use stroke="#746a5a" xlink:href="#p34" />
<use stroke="#d3868b" xlink:href="#p35" />
<use stroke="#c9a8d7" xlink:href="#p36" />
<use stroke="#f86a0c" xlink:href="#p37" />
<use stroke="#d7b6d7" xlink:href="#p38" />
<use stroke="#ba9ed6" xlink:href="#p39" />
<use stroke="#f595ad" xlink:href="#p40" />
<use stroke="#e2b7d7" xlink:href="#p41" />
<use stroke="#be200b" xlink:href="#p42" />
<use stroke="#f48057" xlink:href="#p43" />
<use stroke="#f8c1d5" xlink:href="#p44" />
<use stroke="#f7814e" xlink:href="#p45" />
<use stroke="#c15f8f" xlink:href="#p46" />
<use stroke="#1d111e" xlink:href="#p47" />
<use stroke="#f07a59" xlink:href="#p48" />
<use stroke="#d8b8d8" xlink:href="#p49" />
<use stroke="#cab1d7" xlink:href="#p50" />
<use stroke="#762340" xlink:href="#p51" />
<use stroke="#b26ba2" xlink:href="#p52" />
<use stroke="#d8274b" xlink:href="#p53" />
<use stroke="#ce609b" xlink:href="#p54" />
<use stroke="#ee7dc4" xlink:href="#p55" />
<use stroke="#921526" xlink:href="#p56" />
<use stroke="#d65aa6" xlink:href="#p57" />
<use stroke="#d33877" xlink:href="#p58" />
<use stroke="#b796d5" xlink:href="#p59" />
<use stroke="#de2963" xlink:href="#p60" />
<use stroke="#e4438a" xlink:href="#p61" />
<use stroke="#e05081" xlink:href="#p62" />
<use stroke="#df4278" xlink:href="#p63" />
<use stroke="#dd4a83" xlink:href="#p64" />
<use stroke="#da4884" xlink:href="#p65" />
<use stroke="#d65f9a" xlink:href="#p66" />
<use stroke="#dc3379" xlink:href="#p67" />
<use stroke="#d4358e" xlink:href="#p68" />
<use stroke="#da4aac" xlink:href="#p69" />
<use stroke="#e0325e" xlink:href="#p70" />
<use stroke="#edb9e1" xlink:href="#p71" />
<use stroke="#e030a1" xlink:href="#p72" />
<use stroke="#de227f" xlink:href="#p73" />
<use stroke="#d860a3" xlink:href="#p74" />
<use stroke="#ca5087" xlink:href="#p75" />
<use stroke="#e34ec1" xlink:href="#p76" />
<use stroke="#e05dc7" xlink:href="#p77" />
<use stroke="#d952b9" xlink:href="#p78" />
<use stroke="#d6b5d9" xlink:href="#p79" />
<use stroke="#ab8fd7" xlink:href="#p80" />
<use stroke="#dc3da9" xlink:href="#p81" />
<use stroke="#cca3d7" xlink:href="#p82" />
<use stroke="#c8b7d7" xlink:href="#p83" />
<use stroke="#da29ab" xlink:href="#p84" />
<use stroke="#db42af" xlink:href="#p85" />
<use stroke="#db4fc4" xlink:href="#p86" />
<use stroke="#ac2a77" xlink:href="#p87" />
<use stroke="#ac1f40" xlink:href="#p88" />
<use stroke="#f99fd7" xlink:href="#p89" />
<use stroke="#f55dd0" xlink:href="#p90" />
<use stroke="#900509" xlink:href="#p91" />
<use stroke="#9370c6" xlink:href="#p92" />
<use stroke="#d540a7" xlink:href="#p93" />
<use stroke="#da2006" xlink:href="#p94" />
<use stroke="#56070d" xlink:href="#p95" />
<use stroke="#ab6a73" xlink:href="#p96" />
<use stroke="#f23806" xlink:href="#p97" />
<use stroke="#eb6fb3" xlink:href="#p98" />
<use stroke="#f75f4e" xlink:href="#p99" />
<use stroke="#fb6457" xlink:href="#p100" />
<use stroke="#7e1424" xlink:href="#p101" />
<use stroke="#c19ad8" xlink:href="#p102" />
<use stroke="#ef78b4" xlink:href="#p103" />
<use stroke="#ed5d59" xlink:href="#p104" />
<use stroke="#8e0b0a" xlink:href="#p105" />
<use stroke="#f7480c" xlink:href="#p106" />
<use stroke="#bbb1d8" xlink:href="#p107" />
<use stroke="#2c0505" xlink:href="#p108" />
<use stroke="#c41105" xlink:href="#p109" />
<use stroke="#b4143c" xlink:href="#p110" />
<use stroke="#a4545b" xlink:href="#p111" />
<use stroke="#d31b27" xlink:href="#p112" />
<use stroke="#d0a9d8" xlink:href="#p113" />
<use stroke="#905d6f" xlink:href="#p114" />
<use stroke="#dc1008" xlink:href="#p115" />
<use stroke="#764cb3" xlink:href="#p116" />
<use stroke="#c82bcf" xlink:href="#p117" />
<use stroke="#b134a0" xlink:href="#p118" />
<use stroke="#7f5193" xlink:href="#p119" />
<use stroke="#8b0304" xlink:href="#p120" />
<use stroke="#790a16" xlink:href="#p121" />
<use stroke="#7e0612" xlink:href="#p122" />
<use stroke="#af8cd4" xlink:href="#p123" />
<use stroke="#9252b2" xlink:href="#p124" />
<use stroke="#a1201d" xlink:href="#p125" />
<use stroke="#98107d" xlink:href="#p126" />
<use stroke="#a382d9" xlink:href="#p127" />
<use stroke="#7757cf" xlink:href="#p128" />
<use stroke="#b38ad6" xlink:href="#p129" />
<use stroke="#0c0811" xlink:href="#p130" />
<use stroke="#4f4794" xlink:href="#p131" />
</g>
<g>
<use fill="#e4ddd5" xlink:href="#p0" />
<use fill="#dcedd4" xlink:href="#p1" />
<use fill="#ebe7d6" xlink:href="#p2" />
<use fill="#d7ebd4" xlink:href="#p3" />
<use fill="#defad3" xlink:href="#p4" />
<use fill="#ebead6" xlink:href="#p5" />
<use fill="#ded7d4" xlink:href="#p6" />
<use fill="#cfd0d6" xlink:href="#p7" />
<use fill="#050303" xlink:href="#p8" />
<use fill="#a185ab" xlink:href="#p9" />
<use fill="#b8a0d5" xlink:href="#p10" />
<use fill="#603d52" xlink:href="#p11" />
<use fill="#785789" xlink:href="#p12" />
<use fill="#d2b1d8" xlink:href="#p13" />
<use fill="#030203" xlink:href="#p14" />
<use fill="#766f7f" xlink:href="#p15" />
<use fill="#b495b1" xlink:href="#p16" />
<use fill="#908684" xlink:href="#p17" />
<use fill="#efd6d3" xlink:href="#p18" />
<use fill="#f0d8d5" xlink:href="#p19" />
<use fill="#d7c7d7" xlink:href="#p20" />
<use fill="#5e1621" xlink:href="#p21" />
<use fill="#b4140e" xlink:href="#p22" />
<use fill="#7a5d72" xlink:href="#p23" />
<use fill="#472226" xlink:href="#p24" />
<use fill="#51080e" xlink:href="#p25" />
<use fill="#410c0e" xlink:href="#p26" />
<use fill="#e03136" xlink:href="#p27" />
<use fill="#7069a3" xlink:href="#p28" />
<use fill="#620609" xlink:href="#p29" />
<use fill="#b43028" xlink:href="#p30" />
<use fill="#bb0e06" xlink:href="#p31" />
<use fill="#6f0f16" xlink:href="#p32" />
<use fill="#ed430f" xlink:href="#p33" />
<use fill="#746a5a" xlink:href="#p34" />
<use fill="#d3868b" xlink:href="#p35" />
<use fill="#c9a8d7" xlink:href="#p36" />
<use fill="#f86a0c" xlink:href="#p37" />
<use fill="#d7b6d7" xlink:href="#p38" />
<use fill="#ba9ed6" xlink:href="#p39" />
<use fill="#f595ad" xlink:href="#p40" />
<use fill="#e2b7d7" xlink:href="#p41" />
<use fill="#be200b" xlink:href="#p42" />
<use fill="#f48057" xlink:href="#p43" />
<use fill="#f8c1d5" xlink:href="#p44" />
<use fill="#f7814e" xlink:href="#p45" />
<use fill="#c15f8f" xlink:href="#p46" />
<use fill="#1d111e" xlink:href="#p47" />
<use fill="#f07a59" xlink:href="#p48" />
<use fill="#d8b8d8" xlink:href="#p49" />
<use fill="#cab1d7" xlink:href="#p50" />
<use fill="#762340" xlink:href="#p51" />
<use fill="#b26ba2" xlink:href="#p52" />
<use fill="#d8274b" xlink:href="#p53" />
<use fill="#ce609b" xlink:href="#p54" />
<use fill="#ee7dc4" xlink:href="#p55" />
<use fill="#921526" xlink:href="#p56" />
<use fill="#d65aa6" xlink:href="#p57" />
<use fill="#d33877" xlink:href="#p58" />
<use fill="#b796d5" xlink:href="#p59" />
<use fill="#de2963" xlink:href="#p60" />
<use fill="#e4438a" xlink:href="#p61" />
<use fill="#e05081" xlink:href="#p62" />
<use fill="#df4278" xlink:href="#p63" />
<use fill="#dd4a83" xlink:href="#p64" />
<use fill="#da4884" xlink:href="#p65" />
<use fill="#d65f9a" xlink:href="#p66" />
<use fill="#dc3379" xlink:href="#p67" />
<use fill="#d4358e" xlink:href="#p68" />
<use fill="#da4aac" xlink:href="#p69" />
<use fill="#e0325e" xlink:href="#p70" />
<use fill="#edb9e1" xlink:href="#p71" />
<use fill="#e030a1" xlink:href="#p72" />
<use fill="#de227f" xlink:href="#p73" />
<use fill="#d860a3" xlink:href="#p74" />
<use fill="#ca5087" xlink:href="#p75" />
<use fill="#e34ec1" xlink:href="#p76" />
<use fill="#e05dc7" xlink:href="#p77" />
<use fill="#d952b9" xlink:href="#p78" />
<use fill="#d6b5d9" xlink:href="#p79" />
<use fill="#ab8fd7" xlink:href="#p80" />
<use fill="#dc3da9" xlink:href="#p81" />
<use fill="#cca3d7" xlink:href="#p82" />
<use fill="#c8b7d7" xlink:href="#p83" />
<use fill="#da29ab" xlink:href="#p84" />
<use fill="#db42af" xlink:href="#p85" />
<use fill="#db4fc4" xlink:href="#p86" />
<use fill="#ac2a77" xlink:href="#p87" />
<use fill="#ac1f40" xlink:href="#p88" />
<use fill="#f99fd7" xlink:href="#p89" />
<use fill="#f55dd0" xlink:href="#p90" />
<use fill="#900509" xlink:href="#p91" />
<use fill="#9370c6" xlink:href="#p92" />
<use fill="#d540a7" xlink:href="#p93" />
<use fill="#da2006" xlink:href="#p94" />
<use fill="#56070d" xlink:href="#p95" />
<use fill="#ab6a73" xlink:href="#p96" />
<use fill="#f23806" xlink:href="#p97" />
<use fill="#eb6fb3" xlink:href="#p98" />
<use fill="#f75f4e" xlink:href="#p99" />
<use fill="#fb6457" xlink:href="#p100" />
<use fill="#7e1424" xlink:href="#p101" />
<use fill="#c19ad8" xlink:href="#p102" />
<use fill="#ef78b4" xlink:href="#p103" />
<use fill="#ed5d59" xlink:href="#p104" />
<use fill="#8e0b0a" xlink:href="#p105" />
<use fill="#f7480c" xlink:href="#p106" />
<use fill="#bbb1d8" xlink:href="#p107" />
<use fill="#2c0505" xlink:href="#p108" />
<use fill="#c41105" xlink:href="#p109" />
<use fill="#b4143c" xlink:href="#p110" />
<use fill="#a4545b" xlink:href="#p111" />
<use fill="#d31b27" xlink:href="#p112" />
<use fill="#d0a9d8" xlink:href="#p113" />
<use fill="#905d6f" xlink:href="#p114" />
<use fill="#dc1008" xlink:href="#p115" />
<use fill="#764cb3" xlink:href="#p116" />
<use fill="#c82bcf" xlink:href="#p117" />
<use fill="#b134a0" xlink:href="#p118" />
<use fill="#7f5193" xlink:href="#p119" />
<use fill="#8b0304" xlink:href="#p120" />
<use fill="#790a16" xlink:href="#p121" />
<use fill="#7e0612" xlink:href="#p122" />
<use fill="#af8cd4" xlink:href="#p123" />
<use fill="#9252b2" xlink:href="#p124" />
<use fill="#a1201d" xlink:href="#p125" />
<use fill="#98107d" xlink:href="#p126" />
<use fill="#a382d9" xlink:href="#p127" />
<use fill="#7757cf" xlink:href="#p128" />
<use fill="#b38ad6" xlink:href="#p129" />
<use fill="#0c0811" xlink:href="#p130" />
<use fill="#4f4794" xlink:href="#p131" />
</g>
</svg>