<?xml version="1.0" encoding="UTF-8" standalone="no"?>
<!DOCTYPE svg PUBLIC "-//W3C//DTD SVG 1.1//EN" "http://www.w3.org/Graphics/SVG/1.1/DTD/svg11.dtd">
<svg xmlns="http://www.w3.org/2000/svg" version="1.1" viewBox="0 0 979 301" width="979.0pt" height="301.0pt">
<path d="M 0.00 0.00 L 979.00 0.00 L 979.00 300.22 C 652.68 300.28 326.33 300.24 0.00 300.25 L 0.00 0.00 Z" fill="#121119" />
<path d="M 73.00 58.00 C 99.50 58.00 126.00 57.98 152.49 58.02 C 146.02 64.90 138.95 71.24 132.64 78.28 C 119.43 78.22 106.21 78.27 93.00 78.25 C 86.33 78.24 79.67 78.26 73.00 78.24 C 73.00 71.49 72.99 64.75 73.00 58.00 Z" fill="#fff35c" />
<path d="M 152.49 58.02 L 153.01 58.01 C 152.99 64.79 153.01 71.57 153.00 78.36 C 146.22 78.35 139.42 78.47 132.64 78.28 C 138.95 71.24 146.02 64.90 152.49 58.02 Z" fill="#9e9744" />
<path d="M 153.01 58.01 C 159.67 57.99 166.33 58.00 172.99 58.01 C 173.02 64.67 172.98 71.33 173.01 77.99 C 179.67 78.02 186.33 77.98 192.99 78.01 C 193.02 84.67 192.98 91.33 193.01 97.99 C 199.67 98.02 206.33 97.98 212.99 98.01 C 213.00 104.72 213.03 111.43 212.98 118.15 C 206.34 118.13 199.69 118.05 193.05 118.19 C 179.71 118.31 166.36 118.22 153.01 118.23 C 152.99 104.94 153.01 91.65 153.00 78.36 C 153.01 71.57 152.99 64.79 153.01 58.01 Z" fill="#ff6666" />
<path d="M 358.49 75.72 C 373.46 78.25 386.09 86.32 396.62 96.98 C 388.95 104.71 381.27 112.43 373.38 119.95 C 363.16 110.36 348.79 106.37 335.01 108.15 C 328.87 108.94 322.78 111.01 317.83 114.80 C 311.49 119.53 307.43 126.90 305.62 134.50 C 303.18 145.06 303.39 156.43 307.43 166.58 C 310.51 174.26 315.95 180.85 323.42 184.59 C 332.79 189.35 344.06 189.28 354.15 187.22 C 358.90 186.16 364.48 184.43 368.19 181.20 C 368.36 175.40 368.20 169.57 368.24 163.76 C 356.49 163.74 344.75 163.75 333.01 163.76 C 333.02 153.33 332.94 142.90 333.05 132.47 C 355.87 132.55 378.68 132.47 401.49 132.51 C 401.53 152.68 401.47 172.86 401.52 193.03 C 401.75 195.40 399.83 197.70 398.60 199.60 C 391.63 209.28 380.37 215.12 369.15 218.42 C 354.19 222.63 338.14 223.17 322.84 220.64 C 306.99 217.93 292.14 210.79 281.65 198.37 C 270.14 185.07 264.72 166.39 264.98 149.00 C 264.66 134.44 268.53 119.65 276.23 107.27 C 283.96 94.66 295.97 84.91 309.82 79.75 C 325.13 73.98 342.42 73.10 358.49 75.72 Z" fill="#ffffff" />
<path d="M 73.00 78.24 C 79.67 78.26 86.33 78.24 93.00 78.25 C 93.00 124.83 93.00 171.42 93.00 218.00 C 86.33 218.00 79.67 218.00 73.00 218.00 C 73.00 171.41 73.00 124.83 73.00 78.24 Z" fill="#00ff99" />
<path d="M 93.00 78.25 C 106.21 78.27 119.43 78.22 132.64 78.28 C 139.42 78.47 146.22 78.35 153.00 78.36 C 153.01 91.65 152.99 104.94 153.01 118.23 C 166.36 118.22 179.71 118.31 193.05 118.19 C 192.95 124.83 193.00 131.48 193.03 138.12 C 192.97 164.75 193.02 191.37 193.00 218.00 C 159.67 218.00 126.33 218.00 93.00 218.00 C 93.00 171.42 93.00 124.83 93.00 78.25 Z" fill="#121119" />
<path d="M 420.60 78.18 C 433.80 78.33 447.01 78.22 460.22 78.24 C 460.29 124.90 460.24 171.57 460.24 218.24 C 447.00 218.26 433.75 218.26 420.50 218.24 C 420.56 171.57 420.37 124.83 420.60 78.18 Z" fill="#ffffff" />
<path d="M 484.31 78.31 C 507.18 78.19 530.15 78.24 553.02 78.29 C 568.30 78.58 583.41 82.42 594.46 93.54 C 606.72 105.41 610.49 123.60 607.59 140.01 C 605.65 151.50 599.64 162.23 590.24 169.25 C 580.43 176.69 568.19 179.94 556.03 180.48 C 545.35 180.53 534.68 180.48 524.00 180.50 C 523.99 193.08 524.01 205.66 523.99 218.25 C 510.74 218.23 497.49 218.30 484.23 218.21 C 484.31 171.70 484.16 124.77 484.31 78.31 Z" fill="#ffffff" />
<path d="M 662.49 78.51 C 662.58 96.27 662.36 114.06 662.60 131.82 C 679.31 131.65 696.03 131.80 712.75 131.75 C 712.73 114.02 712.79 96.30 712.72 78.58 C 725.79 78.38 738.87 78.59 751.95 78.47 C 752.04 125.15 752.04 171.85 751.95 218.53 C 738.87 218.41 725.79 218.62 712.72 218.42 C 712.80 200.88 712.71 183.34 712.76 165.79 C 696.01 165.71 679.26 165.76 662.51 165.77 C 662.49 183.34 662.52 200.92 662.49 218.49 C 649.24 218.46 635.97 218.60 622.72 218.42 C 622.77 171.81 622.77 125.19 622.72 78.58 C 635.97 78.40 649.24 78.54 662.49 78.51 Z" fill="#ffffff" />
<path d="M 763.87 78.20 C 778.76 78.35 793.65 78.15 808.54 78.30 C 818.07 94.25 827.80 110.10 837.30 126.06 C 847.41 110.17 857.38 94.19 867.43 78.25 C 882.38 78.22 897.34 78.30 912.30 78.21 C 912.38 81.11 910.47 82.73 909.03 85.02 C 891.96 110.28 874.91 135.63 857.82 160.87 C 857.08 161.86 856.72 162.89 856.75 163.95 C 856.76 182.03 856.74 200.15 856.76 218.22 C 843.43 218.29 830.09 218.24 816.76 218.24 C 816.73 200.19 816.76 182.02 816.75 163.97 C 816.85 161.43 814.31 159.05 813.16 156.89 C 797.07 131.95 781.03 106.95 764.91 82.04 C 764.34 81.10 763.91 80.07 763.62 78.97 L 763.87 78.20 Z" fill="#ffffff" />
<path d="M 524.00 112.50 C 533.34 112.51 542.68 112.49 552.01 112.50 C 556.45 112.53 560.70 113.94 563.83 117.17 C 570.15 123.71 570.43 135.51 564.22 142.21 C 561.07 145.68 556.59 147.07 552.00 147.02 C 542.67 146.99 533.34 147.01 524.00 147.00 C 524.00 135.50 524.00 124.00 524.00 112.50 Z" fill="#121119" />
<path d="M 193.05 118.19 C 199.69 118.05 206.34 118.13 212.98 118.15 L 212.97 118.46 C 206.21 124.88 199.92 131.83 193.03 138.12 C 193.00 131.48 192.95 124.83 193.05 118.19 Z" fill="#62279d" />
<path d="M 212.97 118.46 C 213.04 151.64 212.98 184.82 213.00 218.00 C 206.33 218.00 199.67 218.00 193.00 218.00 C 193.02 191.37 192.97 164.75 193.03 138.12 C 199.92 131.83 206.21 124.88 212.97 118.46 Z" fill="#9933ff" />
<path d="M 73.00 218.00 C 79.67 218.00 86.33 218.00 93.00 218.00 C 126.33 218.00 159.67 218.00 193.00 218.00 C 199.67 218.00 206.33 218.00 213.00 218.00 C 212.99 224.75 213.01 231.50 212.99 238.24 C 166.33 238.26 119.67 238.26 73.01 238.24 C 72.99 231.50 73.01 224.75 73.00 218.00 Z" fill="#00ccff" />
<path d="M 0.00 300.25 C 326.33 300.24 652.68 300.28 979.00 300.22 L 979.00 301.00 L 0.00 301.00 L 0.00 300.25 Z" fill="#ffffff" />
</svg>